<?xml version="1.0"?>
<svg xmlns="http://www.w3.org/2000/svg" xmlns:xlink="http://www.w3.org/1999/xlink" xmlns:svgjs="http://svgjs.com/svgjs" version="1.1" width="50" height="50" x="0" y="0" viewBox="0 0 512 512" style="enable-background:new 0 0 512 512" xml:space="preserve" class=""><g><path xmlns="http://www.w3.org/2000/svg" d="m272 152h192v128h-192z" fill="#686868" data-original="#ad6643" style="" class=""/><path xmlns="http://www.w3.org/2000/svg" d="m24 456h464v32h-464z" fill="#686868" data-original="#ad6643" style="" class=""/><path xmlns="http://www.w3.org/2000/svg" d="m64 280h80v48h-80z" fill="#1188a4" data-original="#3397e8" style="" class=""/><path xmlns="http://www.w3.org/2000/svg" d="m64 360h144v48h-144z" fill="#e9eef2" data-original="#e9eef2" style="" class=""/><path xmlns="http://www.w3.org/2000/svg" d="m24 408h224v48h-224z" fill="#6a7073" data-original="#6a7073" style="" class=""/><path xmlns="http://www.w3.org/2000/svg" d="m280 264h176a32 32 0 0 1 32 32v64a0 0 0 0 1 0 0h-240a0 0 0 0 1 0 0v-64a32 32 0 0 1 32-32z" fill="#e9eef2" data-original="#e9eef2" style="" class=""/><path xmlns="http://www.w3.org/2000/svg" d="m368 24a96 96 0 0 1 96 96v32a0 0 0 0 1 0 0h-192a0 0 0 0 1 0 0v-32a96 96 0 0 1 96-96z" fill="#686868" data-original="#ad6643" style="" class=""/><g xmlns="http://www.w3.org/2000/svg" fill="#edc4a2"><path d="m304 184a32 32 0 0 1 -32-32 32 32 0 0 1 32-32h8v64z" fill="#edc4a2" data-original="#edc4a2" style=""/><path d="m432 120a32 32 0 0 1 32 32 32 32 0 0 1 -32 32h-8v-64z" fill="#edc4a2" data-original="#edc4a2" style=""/><path d="m344 216h48a0 0 0 0 1 0 0v48a16 16 0 0 1 -16 16h-16a16 16 0 0 1 -16-16v-48a0 0 0 0 1 0 0z" fill="#edc4a2" data-original="#edc4a2" style=""/></g><path xmlns="http://www.w3.org/2000/svg" d="m400 88-96 32v48a64 64 0 0 0 64 64 64 64 0 0 0 64-64v-48z" fill="#f7cca9" data-original="#f7cca9" style="" class=""/><path xmlns="http://www.w3.org/2000/svg" d="m296 344h144v112h-144z" fill="#1188a4" data-original="#eb423f" style="" class=""/><path xmlns="http://www.w3.org/2000/svg" d="m344 264h-32l-16 80h32z" fill="#1188a4" data-original="#c7312e" style="" class=""/><path xmlns="http://www.w3.org/2000/svg" d="m248 360h48v96h-48z" fill="#f7cca9" data-original="#f7cca9" style="" class=""/><path xmlns="http://www.w3.org/2000/svg" d="m440 360h48v96h-48z" fill="#f7cca9" data-original="#f7cca9" style="" class=""/><path xmlns="http://www.w3.org/2000/svg" d="m424 264h-32l16 80h32z" fill="#1188a4" data-original="#c7312e" style="" class=""/><path xmlns="http://www.w3.org/2000/svg" d="m24 496h464a8 8 0 0 0 8-8v-192a40.051 40.051 0 0 0 -24-36.65v-139.35a104 104 0 0 0 -208 0v139.35a40.051 40.051 0 0 0 -24 36.65v104h-24v-40a8 8 0 0 0 -8-8h-96v-16h32a8 8 0 0 0 8-8v-48a8 8 0 0 0 -8-8h-80a8 8 0 0 0 -8 8v48a8 8 0 0 0 8 8h32v16h-32a8 8 0 0 0 -8 8v40h-32a8 8 0 0 0 -8 8v80a8 8 0 0 0 8 8zm48-208h64v32h-64zm408 192h-448v-16h448zm-145.758-208-12.8 64h-15.684l12.8-64zm83.2 0 12.8 64h-15.684l-12.8-64zm62.558 176h-32v-80h32zm-132-163.227a23.841 23.841 0 0 0 12 3.227h16a23.841 23.841 0 0 0 12-3.227l10.242 51.227h-60.484zm84 67.227v96h-128v-96zm-64-128a56.064 56.064 0 0 1 -56-56v-42.234l85.839-28.613 26.161 26.16v44.687a56.064 56.064 0 0 1 -56 56zm0 16a71.947 71.947 0 0 0 16-1.814v25.814a8.009 8.009 0 0 1 -8 8h-16a8.009 8.009 0 0 1 -8-8v-25.814a71.947 71.947 0 0 0 16 1.814zm-80 208h-32v-80h32zm192-152v56h-32v-8a8.035 8.035 0 0 0 -.156-1.569v-.013l-.011-.055-14.075-70.363h22.242a24.027 24.027 0 0 1 24 24zm-80-40v-23.528a72.37 72.37 0 0 0 35.938-40.672 39.784 39.784 0 0 0 20.062-7.822v72.022zm40-88v-38.624a23.994 23.994 0 0 1 -.325 45.358c.206-2.218.325-4.462.325-6.734zm-72-136a88.1 88.1 0 0 1 88 88v.022a39.789 39.789 0 0 0 -20.526-7.862l-29.817-29.817a8 8 0 0 0 -8.187-1.932l-94.87 31.625a39.782 39.782 0 0 0 -22.6 7.986v-.022a88.1 88.1 0 0 1 88-88zm-71.675 142.734a23.994 23.994 0 0 1 -.325-45.358v38.624c0 2.272.119 4.516.325 6.734zm-16.325 9.244a39.784 39.784 0 0 0 20.062 7.826 72.37 72.37 0 0 0 35.938 40.668v23.528h-56zm0 88.022h22.242l-14.073 70.363-.011.055v.013a8.035 8.035 0 0 0 -.158 1.569v8h-32v-56a24.027 24.027 0 0 1 24-24zm-208 96h128v32h-128zm168 48v32h-208v-32z" fill="#000000" data-original="#000000" style="" class=""/><circle xmlns="http://www.w3.org/2000/svg" cx="336" cy="152" r="8" fill="#000000" data-original="#000000" style="" class=""/><circle xmlns="http://www.w3.org/2000/svg" cx="400" cy="152" r="8" fill="#000000" data-original="#000000" style="" class=""/></g></svg>
