<?xml version="1.0"?>
<svg xmlns="http://www.w3.org/2000/svg" xmlns:xlink="http://www.w3.org/1999/xlink" xmlns:svgjs="http://svgjs.com/svgjs" version="1.1" width="512" height="512" x="0" y="0" viewBox="0 0 512 512" style="enable-background:new 0 0 512 512" xml:space="preserve" class=""><g><path xmlns="http://www.w3.org/2000/svg" d="m232 296h48v48h-48z" fill="#f7cca9" data-original="#f7cca9" style="" class=""/><path xmlns="http://www.w3.org/2000/svg" d="m143.078 311.935h225.844a39.078 39.078 0 0 1 39.078 39.077v136.988a0 0 0 0 1 0 0h-304a0 0 0 0 1 0 0v-136.988a39.078 39.078 0 0 1 39.078-39.078z" fill="#1188a4" data-original="#6a7073" style="" class=""/><path xmlns="http://www.w3.org/2000/svg" d="m168 242.668a31.79 31.79 0 0 1 -17.748 5.332c-16.702 0-30.252-12.542-30.252-28s13.55-28 30.252-28a31.9 31.9 0 0 1 10.084 1.61z" fill="#f0c6a4" data-original="#f0c6a4" style=""/><path xmlns="http://www.w3.org/2000/svg" d="m344 242.668a31.79 31.79 0 0 0 17.748 5.332c16.702 0 30.252-12.542 30.252-28s-13.55-28-30.252-28a31.9 31.9 0 0 0 -10.084 1.61z" fill="#f0c6a4" data-original="#f0c6a4" style=""/><rect xmlns="http://www.w3.org/2000/svg" fill="#f7cca9" height="240" rx="104" width="208" x="152" y="72" data-original="#f7cca9" style="" class=""/><path xmlns="http://www.w3.org/2000/svg" d="m192 344 64 143 64-143z" fill="#e9eef2" data-original="#e9eef2" style="" class=""/><path xmlns="http://www.w3.org/2000/svg" d="m320 352-48-8.816v-31.347l48-7.837z" fill="#4f5659" data-original="#4f5659" style=""/><path xmlns="http://www.w3.org/2000/svg" d="m192 352 48-8.816v-31.347l-48-7.837z" fill="#4f5659" data-original="#4f5659" style=""/><path xmlns="http://www.w3.org/2000/svg" d="m360 184s-40.592-9.482-64.184-55.344c0 0-55.432-8.394-79.024 29.824s-63.373 22.181-63.373 22.181-33.568-18.925-23.554-74.373c7.9-43.756 126.783-127.821 197.56-51.385 0 0 44.521 6.374 55.317 58.841 7.864 38.218-22.742 70.256-22.742 70.256z" fill="#686868" data-original="#694435" style="" class=""/><path xmlns="http://www.w3.org/2000/svg" d="m104 496h304a8 8 0 0 0 8-8v-136.988a47.131 47.131 0 0 0 -47.078-47.077h-40.922a7.923 7.923 0 0 0 -4.109-6.919 112.706 112.706 0 0 0 33.407-41.262 40.731 40.731 0 0 0 4.454.246c21.088 0 38.248-16.149 38.248-36 0-17.846-13.872-32.694-32-35.511v-1.363c8.712-9.493 29.663-36.561 22.578-70.995-6.132-29.8-22.509-45.911-35.168-54.18a76.549 76.549 0 0 0 -23.916-10.385c-28.5-29.42-67.875-38.667-111.181-26.018-51.807 15.13-93.4 56.053-98.32 83.318-8.443 46.747 11.744 70.2 22.007 78.8v.818c-18.128 2.817-32 17.665-32 35.511 0 19.851 17.16 36 38.252 36a40.731 40.731 0 0 0 4.454-.246 112.706 112.706 0 0 0 33.407 41.262 7.923 7.923 0 0 0 -4.113 6.924h-40.922a47.131 47.131 0 0 0 -47.078 47.077v136.988a8 8 0 0 0 8 8zm208-153.6-24-4.408v-20.661l24-3.919zm-72-23.545a112.072 112.072 0 0 0 32 0v17.145h-32zm-16 19.137-24 4.408v-28.988l24 3.919zm9.445 14.532-.095-.524h45.3l-.095.521 26.674 4.9-49.229 109.996-49.229-110zm166.555-1.512v128.988h-132.1l53.79-120.188a7.977 7.977 0 0 0 6.31-7.812v-32.065h40.922a31.112 31.112 0 0 1 31.078 31.077zm-16-131.012c0 10.543-9.125 19.2-20.648 19.942a111.672 111.672 0 0 0 4.648-31.942v-7.191c9.235 2.435 16 10.114 16 19.191zm-9.094-104.644c5.5 26.719-11.492 48.9-18.454 56.651-9.5-2.761-34.574-12.715-51.867-43.911 11.68-28.921 23.251-53.433 28.14-63.548a62.331 62.331 0 0 1 13.935 6.8c14.711 9.608 24.214 24.415 28.246 44.008zm-237.168-7.647c1.878-10.4 12.468-25 27.637-38.094a163.164 163.164 0 0 1 59.425-32.709c26.08-7.618 63.128-10.036 93.712 20.286-4.785 9.885-16.249 34.124-27.956 62.925a122.985 122.985 0 0 0 -26.663 1.219c-24.36 3.883-43 15.274-53.908 32.942-18.512 29.989-48.49 20.776-53.032 19.163-3.765-2.441-27.495-19.886-19.215-65.732zm-9.738 112.291c0-9.077 6.765-16.756 16-19.191v7.191a111.672 111.672 0 0 0 4.648 31.942c-11.523-.742-20.648-9.399-20.648-19.942zm32-12v-17.273a68.3 68.3 0 0 0 12.985 1.273c1.221 0 2.473-.035 3.749-.111 13.657-.813 32.873-6.54 46.865-29.206 8.443-13.677 22.707-22.249 42.394-25.478a107.333 107.333 0 0 1 24.776-1.029c19.954 35.788 48.965 47.639 61.231 51.195v20.629a96 96 0 0 1 -192 0zm-48 143.012a31.112 31.112 0 0 1 31.078-31.077h40.922v32.065a7.977 7.977 0 0 0 6.312 7.812l53.788 120.188h-132.1z" fill="#000000" data-original="#000000" style="" class=""/><circle xmlns="http://www.w3.org/2000/svg" cx="296" cy="208" r="8" fill="#000000" data-original="#000000" style="" class=""/><circle xmlns="http://www.w3.org/2000/svg" cx="216" cy="208" r="8" fill="#000000" data-original="#000000" style="" class=""/><path xmlns="http://www.w3.org/2000/svg" d="m248 240h16a8 8 0 0 0 0-16h-8v-8a8 8 0 0 0 -16 0v16a8 8 0 0 0 8 8z" fill="#000000" data-original="#000000" style="" class=""/><path xmlns="http://www.w3.org/2000/svg" d="m256 280c34.932 0 46.893-27.742 47.385-28.923a8 8 0 1 0 -14.77-6.154c-.079.191-8.23 19.077-32.615 19.077-23.956 0-32.248-18.238-32.636-19.126a8 8 0 0 0 -14.749 6.2c.492 1.184 12.453 28.926 47.385 28.926z" fill="#000000" data-original="#000000" style="" class=""/><circle xmlns="http://www.w3.org/2000/svg" cx="256" cy="368" r="8" fill="#000000" data-original="#000000" style="" class=""/><circle xmlns="http://www.w3.org/2000/svg" cx="256" cy="400" r="8" fill="#000000" data-original="#000000" style="" class=""/><path xmlns="http://www.w3.org/2000/svg" d="m312 448a8 8 0 0 0 8 8h56a8 8 0 0 0 0-16h-56a8 8 0 0 0 -8 8z" fill="#000000" data-original="#000000" style="" class=""/><path xmlns="http://www.w3.org/2000/svg" d="m328 416a8 8 0 0 0 8 8h24a8 8 0 0 0 0-16h-24a8 8 0 0 0 -8 8z" fill="#000000" data-original="#000000" style="" class=""/></g></svg>
