<?xml version="1.0"?>
<svg xmlns="http://www.w3.org/2000/svg" xmlns:xlink="http://www.w3.org/1999/xlink" xmlns:svgjs="http://svgjs.com/svgjs" version="1.1" width="512" height="512" x="0" y="0" viewBox="0 0 512 512" style="enable-background:new 0 0 512 512" xml:space="preserve" class=""><g><path xmlns="http://www.w3.org/2000/svg" d="m392 304h-304l27.87-55.75c12.27-24.54 38.88-40.25 68.16-40.25h133.16c20.97 0 39.78 11.92 47.3 29.99z" fill="#d4edff" data-original="#a3d4f7" style="" class=""/><circle xmlns="http://www.w3.org/2000/svg" cx="431.972" cy="159.972" fill="#e1e3e6" r="55.972" data-original="#e1e3e6" style="" class=""/><circle xmlns="http://www.w3.org/2000/svg" cx="431.972" cy="159.972" fill="#1188a4" r="23.972" data-original="#35a872" style="" class=""/><path xmlns="http://www.w3.org/2000/svg" d="m482.16 392h-42.16v-32h34.38l-1.31-5.37c-10.15-32.5-40.25-50.63-74.3-50.63h-310.77c-28.93 4.771-51.8 26.41-55.58 56.61l-4.77 31.39-3.65 24h464z" fill="#1188a4" data-original="#2d85cc" style="" class=""/><path xmlns="http://www.w3.org/2000/svg" d="m24 392h464v32h-464z" fill="#686868" data-original="#b3113f" style="" class=""/><circle xmlns="http://www.w3.org/2000/svg" cx="128" cy="416" fill="#dadcde" r="40" data-original="#dadcde" style="" class=""/><circle xmlns="http://www.w3.org/2000/svg" cx="368" cy="416" fill="#dadcde" r="40" data-original="#dadcde" style="" class=""/><path xmlns="http://www.w3.org/2000/svg" d="m482.16 392h-42.16v-32h34.38z" fill="#d4edff" data-original="#a3d4f7" style="" class=""/><path xmlns="http://www.w3.org/2000/svg" d="m488.453 384.023-7.609-31.284c-.04-.166-.086-.331-.137-.493a77.4 77.4 0 0 0 -40.707-47.062v-81.762a63.972 63.972 0 1 0 -16 .007v75.825a97.682 97.682 0 0 0 -25.23-3.254h-1.436l-25.454-61.09c-8.837-21.21-30.303-34.91-54.687-34.91h-133.164c-32.18 0-61.741 17.536-75.311 44.676l-26.688 53.376c-30.92 6.823-53.579 30.19-57.535 61.459l-3.833 25.226a7.993 7.993 0 0 0 -4.662 7.263v32a8 8 0 0 0 8 8h62.458a47.953 47.953 0 0 0 83.084 0h156.915a47.955 47.955 0 0 0 83.086 0h78.457a8 8 0 0 0 8-8v-32a7.994 7.994 0 0 0 -7.547-7.977zm-20.364-16.023 3.892 16h-23.981v-16zm-84.089-208.028a47.972 47.972 0 1 1 47.972 47.971 48.026 48.026 0 0 1 -47.972-47.971zm-26.89 81.092 22.89 54.936h-132v-80h69.193c17.629 0 33.67 10.072 39.917 25.064zm-234.082 10.768c10.884-21.768 34.828-35.832 61-35.832h47.972v80h-130.92c-.046 0-.091 0-.137 0zm-91.028 164.168v-16h48.679a47.468 47.468 0 0 0 0 16zm96 24a32 32 0 1 1 32-32 32.036 32.036 0 0 1 -32 32zm47.321-24a47.468 47.468 0 0 0 0-16h145.358a47.468 47.468 0 0 0 0 16zm192.679 24a32 32 0 1 1 32-32 32.036 32.036 0 0 1 -32 32zm0-80a48.017 48.017 0 0 0 -41.543 24h-156.915a47.953 47.953 0 0 0 -83.084 0h-49.5l3.372-22.188c.011-.07.02-.139.029-.209 3.651-29.203 28.62-49.603 60.721-49.603h297.69a79.121 79.121 0 0 1 30.189 5.739c16.2 6.659 28.331 18.721 34.652 34.261h-23.611a8 8 0 0 0 -8 8v24h-22.457a48.017 48.017 0 0 0 -41.543-24zm112 56h-64.679a47.468 47.468 0 0 0 0-16h64.679z" fill="#000000" data-original="#000000" style="" class=""/><path xmlns="http://www.w3.org/2000/svg" d="m24 456a8 8 0 0 0 0 16h464a8 8 0 0 0 0-16z" fill="#000000" data-original="#000000" style="" class=""/><path xmlns="http://www.w3.org/2000/svg" d="m463.943 159.972a31.972 31.972 0 1 0 -31.971 31.971 32.008 32.008 0 0 0 31.971-31.971zm-47.943 0a15.972 15.972 0 1 1 15.972 15.971 15.99 15.99 0 0 1 -15.972-15.971z" fill="#000000" data-original="#000000" style="" class=""/><path xmlns="http://www.w3.org/2000/svg" d="m272 328h-16a8 8 0 0 0 0 16h16a8 8 0 0 0 0-16z" fill="#000000" data-original="#000000" style="" class=""/></g></svg>
