<?xml version="1.0"?>
<svg xmlns="http://www.w3.org/2000/svg" xmlns:xlink="http://www.w3.org/1999/xlink" xmlns:svgjs="http://svgjs.com/svgjs" version="1.1" width="512" height="512" x="0" y="0" viewBox="0 0 510.021 510.021" style="enable-background:new 0 0 512 512" xml:space="preserve" class=""><g><g xmlns="http://www.w3.org/2000/svg"><g><g><path d="m315.949 350.035-20.444-1.997h-80.985l-20.444 1.997 2.278 23.677h119.595z" fill="#efedef" data-original="#efedef" style="" class=""/></g><g><path d="m295.506 274.248h-80.986v139.57s81.303 0 80.985 0 .001-139.57.001-139.57z" fill="#f6a96c" data-original="#f6a96c" style="" class=""/></g><path d="m236.863 316.297v6.99h-22.343v90.531h26.903v-55.96c0-4.072 3.421-7.275 7.487-7.068 2.021.103 4.056.155 6.103.155 14.162 0 27.754-2.479 40.373-7.016.011-9.446.025-18.883.039-27.631h-58.562z" fill="#ea9b58" data-original="#ea9b58" style=""/><path d="m384.835 422.088-19.382-8.27-48.235-42.383 4.01-6.975c-.973-.776-1.558-1.208-1.656-1.208-1.02 0-64.56 25.08-64.56 25.08l-57.358-20.524-23.895 27.726-33.87 46.909-3.033 60.079h244.309c5.831 0 10.558-4.727 10.558-10.558v-45.242c0-8.782-2.434-17.284-6.888-24.634z" fill="#f9f7f8" data-original="#f9f7f8" style="" class=""/><g><path d="m393.353 152.834-7.683 40.089-8.617 30.042h-246.169l-6.528-30.042-7.683-40.089-15.54-51.598h303.918z" fill="#686868" data-original="#b5adb6" style="" class=""/></g><path d="m371.478 235.311h-28.812v-47.141h28.812c13.018 0 23.57 10.553 23.57 23.571 0 13.017-10.552 23.57-23.57 23.57z" fill="#ffbd86" data-original="#ffbd86" style="" class=""/><g><path d="m138.548 235.311h31.812v-47.141h-31.812c-13.018 0-23.571 10.553-23.571 23.571.001 13.017 10.554 23.57 23.571 23.57z" fill="#ffbd86" data-original="#ffbd86" style="" class=""/><g><path d="m150.383 123.099v35.982 14.61l12.842 2.603 1.997 71.558 35.613 64.902 64.902 19.805 31.506-5.485c36.775-16.228 62.446-53.006 62.446-95.785v-72.209-35.982h-209.306z" fill="#ffbd86" data-original="#ffbd86" style="" class=""/><path d="m188.795 154.244v-3.967-27.174h-38.435v35.982 72.207c0 57.798 46.855 104.653 104.653 104.653 15.033 0 29.316-3.165 42.236-8.873-1.265.045-2.526.065-3.801.065-57.798 0-104.653-46.855-104.653-104.653 0-7.047 6.403-12.331 13.331-11.038 5.216.973 10.554 1.477 15.958 1.477h73.859c26.388 0 51.242-12.009 67.723-32.055v-21.783-4.84h-170.871z" fill="#f6a96c" data-original="#f6a96c" style="" class=""/><path d="m350.519 159.085c-12.075 20.938-34.407 33.838-58.576 33.838h-73.859c-24.17 0-46.502-12.901-58.576-33.838l-28.623-46.744s250.429-4.284 250.429 0-30.795 46.744-30.795 46.744z" fill="#686868" data-original="#b5adb6" style="" class=""/></g><path d="m379.713 27.581c-40.49-13.37-82.6-20.06-124.7-20.06s-84.21 6.69-124.7 20.06c-30.65 10.12-47.66 37.92-47.66 66.15 0 19.14 7.82 38.48 24.51 52.65l89.185 1.721 206.515-1.721c16.69-14.17 24.51-33.51 24.51-52.65 0-28.23-17.01-56.03-47.66-66.15z" fill="#1188a4" data-original="#a79ba7" style="" class=""/><g id="XMLID_165_"><g><path d="m412.315 134.734c-19.113-15.511-43.196-24.053-67.812-24.053 0 0-129.952.039-171.494.102-8.453.013-16.102-5.245-18.87-13.233-2.538-7.324-3.779-14.953-3.779-22.553 0-24.77 13.068-49.22 36.983-61.675-19.259 3.325-38.304 8.075-57.03 14.258-30.65 10.12-47.66 37.92-47.66 66.15 0 19.14 7.82 38.48 24.51 52.65l69.48 1.341 19.705.38 206.515-1.721c3.96-3.362 7.404-7.023 10.379-10.895z" fill="#1188a4" data-original="#918291" style="" class=""/><path d="m402.863 146.381c-9.65 8.2-21.91 12.7-34.58 12.7h-226.54c-12.67 0-24.93-4.5-34.58-12.7 16.5-13.39 37.11-20.7 58.36-20.7h178.98c21.25 0 41.86 7.31 58.36 20.7z" fill="#1188a4" data-original="#cbc4cc" style="" class=""/></g></g><path d="m246.335 96.661-69.031-24.618c-1.44-.514-2.402-1.878-2.402-3.407v-8.958c0-1.998 1.619-3.617 3.617-3.617h152.987c1.998 0 3.617 1.619 3.617 3.617v8.958c0 1.529-.962 2.893-2.402 3.407l-69.031 24.618c-5.611 2.001-11.743 2.001-17.355 0z" fill="#fee97d" data-original="#fee97d" style=""/><path d="m319.573 363.251c-1.02 0-64.56 25.08-64.56 25.08l-57.12-20.439-.684 7.148-35.41 31.308-36.605 15.743-.003-.002c-4.454 7.349-6.887 15.851-6.887 24.632v45.242c0 5.831 4.727 10.558 10.558 10.558h29.935v-55.8c0-14.02 6.2-27.33 16.93-36.37 3.974-3.346 9.972-2.507 12.875 1.802l7.237 10.743c3.989 5.922 10.56 9.76 17.7 9.86 4.783.067 9.338-1.423 13.154-4.299l23.882-18.001c2.628-1.981 6.25-1.981 8.878 0l23.889 18.006c3.699 2.788 8.206 4.296 12.838 4.296 7.117 0 13.739-3.523 17.712-9.423l27.934-41.468c-11.557-9.919-21.815-18.616-22.253-18.616z" fill="#efedef" data-original="#efedef" style="" class=""/><path d="m165.244 391.303-11.171 3.188-18.84 15.86c-4 3.38-7.38 7.35-10.04 11.74l17.97 17.97c2.93 2.93 7.6 3.19 10.83.59l24.15-19.39 2.998-14.913z" fill="#fee45a" data-original="#fee45a" style=""/><path d="m154.073 394.491-18.84 15.86c-4 3.38-7.38 7.35-10.04 11.74l17.97 17.97c2.93 2.93 7.6 3.19 10.83.59l6.101-4.899c2.335-9.828 7.757-18.766 15.632-25.401 1.48-1.246 3.241-1.91 5.018-2.032l.396-1.971-15.898-15.044z" fill="#fedf30" data-original="#fedf30" style="" class=""/><path d="m229.233 379.101-28.59 24.09-22.5 18.07-24.07-26.77 25.98-21.88 10.57-7.32z" fill="#fee97d" data-original="#fee97d" style=""/><path d="m171.736 414.136c1.251-1.329 2.579-2.596 3.99-3.785 3.974-3.346 9.972-2.507 12.875 1.802l.31.46 11.732-9.422 28.585-24.086-38.605-13.814-10.57 7.32-25.98 21.88z" fill="#fee45a" data-original="#fee45a" style=""/><path d="m268.093 431.759 9.409 70.761h-45.08l9.409-70.761 3.375-20.721h18.193z" fill="#1188a4" data-original="#a79ba7" style="" class=""/><path d="m257.571 411.038h-12.365l-3.375 20.721-9.409 70.761h12.365l9.409-70.761z" fill="#1188a4" data-original="#918291" style="" class=""/><path d="m255.013 388.327-44.932-7.386 15.934 29.238 12.1 16.506 10.533 2.463 5.52 2.607h14.027l15.816-21.576 18.842-26.295z" fill="#1188a4" data-original="#a79ba7" style="" class=""/><path d="m255.027 388.321c-.003.001-.014.005-.014.005l-.021-.008-44.91-7.383 15.934 29.238 4.965 6.773 10.851 14.802 12.365.004-8.731-11.877c-1.459-1.991-1.048-4.785.923-6.271l4.185-3.155c2.628-1.981 6.25-1.981 8.878 0l15.688 11.824 8.871-12.102 18.842-26.295z" fill="#1188a4" data-original="#918291" style="" class=""/><path d="m200.729 351.912 54.284 36.415-37.35 28.152c-2.906 2.19-7.055 1.495-9.088-1.523l-28.525-42.346c-2.989-4.437-2.412-10.37 1.375-14.148l5.192-5.18c3.773-3.767 9.683-4.34 14.112-1.37z" fill="#f9f7f8" data-original="#f9f7f8" style="" class=""/><path d="m374.793 410.351s-8.38-7.28-18.61-16.12l-8.344-2.931-19.456 17.788 3.5 12.173 24.15 19.39c3.23 2.6 7.9 2.34 10.83-.59l17.97-17.97c-2.66-4.39-6.04-8.36-10.04-11.74z" fill="#fee45a" data-original="#fee45a" style=""/><path d="m284.013 376.921c16.9-6.62 35.02-13.67 35.56-13.67.62 0 20.82 17.34 36.61 30.98l-24.3 27.03-22.5-18.07-25.37-26.26z" fill="#fee97d" data-original="#fee97d" style=""/><path d="m319.419 363.287c-.041.012-.082.024-.139.042-.027.009-.064.021-.094.031-.06.02-.12.039-.193.064-.041.014-.09.031-.135.047-.074.026-.149.052-.234.082-.06.021-.128.046-.194.069-.083.03-.166.059-.257.092-.078.028-.162.059-.246.09-.096.035-.192.07-.296.108-.095.035-.196.072-.298.11-.092.034-.185.068-.282.104-.134.05-.273.101-.416.155-.079.029-.159.059-.24.09-.174.065-.352.132-.539.202-.046.017-.092.035-.139.052-6.302 2.372-19.327 7.45-31.703 12.301v.005l25.37 26.26 11.732 9.422 20.711-30.746c-8.293-7.118-15.917-13.606-19.724-16.703-.009-.007-.019-.015-.028-.023-.146-.119-.285-.231-.419-.34-.058-.047-.112-.09-.168-.135-.166-.133-.32-.256-.466-.372-.089-.07-.179-.142-.26-.205-.064-.05-.122-.095-.182-.141-.086-.066-.167-.128-.242-.186-.042-.032-.085-.065-.124-.094-.105-.079-.2-.148-.281-.205-.02-.014-.036-.024-.055-.037-.061-.042-.114-.077-.158-.104-.016-.01-.032-.019-.045-.027-.047-.026-.085-.045-.102-.045-.016 0-.05.007-.099.02-.014.005-.038.012-.055.017z" fill="#fee45a" data-original="#fee45a" style=""/><path d="m309.298 351.912-54.285 36.415 37.35 28.152c2.906 2.19 7.055 1.495 9.088-1.523l28.525-42.346c2.989-4.437 2.412-10.37-1.375-14.148l-5.192-5.18c-3.773-3.767-9.683-4.34-14.111-1.37z" fill="#f9f7f8" data-original="#f9f7f8" style="" class=""/></g></g><g><path d="m433.488 79.105c-5.25-27.563-24.23-49.402-50.771-58.42-3.925-1.336-8.182.767-9.514 4.688-1.333 3.922.766 8.182 4.688 9.514 21.36 7.258 36.636 24.837 40.862 47.025 3.85 20.213-2.255 40.248-16.4 54.705-16.846-11.917-37.138-18.437-57.849-18.437h-137.639c-4.142 0-7.5 3.358-7.5 7.5s3.358 7.5 7.5 7.5h137.639c16.032 0 31.773 4.591 45.273 13.06-6.58 3.482-13.957 5.345-21.491 5.345h-226.546c-7.536 0-14.917-1.864-21.498-5.349 13.501-8.471 29.247-13.056 45.281-13.056h9.38c4.142 0 7.5-3.358 7.5-7.5s-3.358-7.5-7.5-7.5h-9.38c-20.711 0-41.003 6.519-57.849 18.437-14.22-14.529-20.309-34.665-16.351-54.977 4.341-22.273 19.796-39.82 41.343-46.938 69.571-22.983 143.965-25.917 215.139-8.483 4.02.987 8.083-1.477 9.069-5.5.985-4.023-1.477-8.083-5.5-9.069-73.911-18.105-151.166-15.058-223.413 8.81-26.769 8.841-45.969 30.64-51.362 58.31s4.218 55.083 25.707 73.331c2.411 2.048 4.974 3.88 7.647 5.515l6.243 32.576c-5.392 5.591-8.719 13.186-8.719 21.549 0 17.132 13.938 31.071 31.07 31.071h4.899c1.276 12.585 4.648 24.746 10.087 36.276 1.28 2.712 3.976 4.302 6.788 4.302 1.072 0 2.162-.231 3.195-.719 3.746-1.768 5.35-6.237 3.583-9.983-6.132-12.998-9.241-26.925-9.241-41.396v-61.112c14.062 18.838 36.414 30.243 60.224 30.243h73.859c23.81 0 46.162-11.404 60.224-30.243v61.111c0 53.57-43.583 97.153-97.153 97.153-26.944 0-52.914-11.342-71.252-31.119-2.816-3.037-7.562-3.217-10.599-.4-3.037 2.816-3.216 7.562-.4 10.599 9.788 10.555 21.462 19.024 34.258 25.084v8.626l-13.673 1.335c-.046.005-.09.015-.136.02-4.367.305-8.622 2.117-11.893 5.382l-5.191 5.18c-4.606 4.595-6.352 11.126-5.035 17.196l-40.693 34.268c-12.45 10.484-19.59 25.833-19.59 42.109v55.794c0 4.142 3.358 7.5 7.5 7.5s7.5-3.358 7.5-7.5v-55.794c0-4.005.608-7.929 1.745-11.669l10.308 10.308c3.039 3.039 7.034 4.583 11.048 4.583 3.445 0 6.905-1.139 9.781-3.449l40.293-32.358 3.371 5.004c2.114 3.138 5.466 5.296 9.197 5.922.754.126 1.513.188 2.271.188 2.991 0 5.944-.97 8.355-2.788l2.283-1.721 9.539 13.013-9.011 67.771c-.546 4.106 2.34 7.877 6.446 8.423.336.044.668.066.998.066 3.703 0 6.924-2.742 7.425-6.513l8.543-64.25h13.125l8.543 64.25c.501 3.771 3.722 6.513 7.425 6.513.329 0 .663-.022.998-.066 4.106-.546 6.992-4.317 6.446-8.423l-8.995-67.653 9.625-13.13 2.283 1.721c2.411 1.817 5.364 2.788 8.355 2.788.757 0 1.517-.062 2.271-.188 3.731-.625 7.083-2.784 9.197-5.922l3.371-5.004 40.293 32.358c2.876 2.311 6.335 3.449 9.781 3.449 4.014 0 8.009-1.545 11.048-4.583l10.308-10.308c1.137 3.74 1.745 7.664 1.745 11.669v55.794c0 4.142 3.358 7.5 7.5 7.5s7.5-3.358 7.5-7.5v-55.794c0-16.276-7.14-31.625-19.59-42.109l-40.693-34.268c1.317-6.07-.429-12.6-5.035-17.195l-5.192-5.182c-3.273-3.266-7.53-5.078-11.9-5.382-.044-.005-.085-.015-.129-.019l-13.673-1.335v-8.592c34.598-16.449 59.5-50.099 63.573-89.831h4.9c17.132 0 31.07-13.938 31.07-31.071 0-8.362-3.327-15.958-8.719-21.549l6.243-32.576c2.673-1.634 5.236-3.467 7.647-5.515 21.382-18.157 31.015-45.445 25.767-72.996zm-284.19 355.698c-.248.199-.604.18-.83-.045l-13.505-13.505c1.53-1.853 3.226-3.587 5.098-5.163l13.287-11.189 13.916 15.475zm29.679-23.834-14.151-15.735 13.667-11.509 12.079 17.932zm7.293-42.55c-.98-1.455-.79-3.409.452-4.649l5.19-5.18c.708-.706 1.649-1.07 2.597-1.07.708 0 1.42.204 2.041.62l45.53 30.542-27.963 21.077zm78.124 55.84h-18.762l-9.193-12.541 18.573-13.999 18.574 13.999zm55.059-22.603 12.079-17.932 13.667 11.509-14.151 15.735zm55.61 19.597-13.505 13.505c-.225.225-.582.244-.83.045l-17.966-14.428 13.916-15.474 13.287 11.189c1.872 1.576 3.568 3.31 5.098 5.163zm-51.307-52.833-27.848 41.34-27.963-21.077 45.53-30.542c1.451-.974 3.401-.783 4.637.449l5.192 5.182c1.242 1.238 1.432 3.193.452 4.648zm-35.75-11.256-32.993 22.132-32.993-22.132v-18.722c10.607 3.277 21.725 5.003 32.993 5.003 11.478 0 22.557-1.737 32.993-4.955zm-146.266-190.579h1.12v14.085h-4.312c-3.008 0-5.914.438-8.666 1.239l-3.308-17.258c4.924 1.267 10.016 1.934 15.166 1.934zm-19.262 45.155c0-8.861 7.209-16.07 16.07-16.07h4.312v32.141h-4.312c-8.861 0-16.07-7.209-16.07-16.071zm169.465-26.317h-73.859c-16.676 0-32.462-6.988-43.687-18.838h161.21c-11.226 11.842-26.994 18.838-43.664 18.838zm79.535 42.388h-4.312v-32.141h4.312c8.861 0 16.07 7.209 16.07 16.07s-7.209 16.071-16.07 16.071zm8.666-45.902c-2.753-.801-5.659-1.239-8.666-1.239h-4.312v-14.085h1.12c5.149 0 10.242-.667 15.165-1.934z" fill="#000000" data-original="#000000" style="" class=""/><path d="m266.21 103.725 69.031-24.618c4.416-1.575 7.383-5.783 7.383-10.472v-8.958c0-6.13-4.987-11.117-11.117-11.117h-152.988c-6.13 0-11.117 4.987-11.117 11.117v8.958c0 4.688 2.967 8.896 7.383 10.472l69.031 24.618c3.611 1.288 7.403 1.932 11.197 1.932 3.793-.001 7.587-.645 11.197-1.932zm-17.356-14.128-66.452-23.699v-2.337h145.222v2.337l-66.453 23.699c-3.97 1.416-8.345 1.416-12.317 0 .001 0 .001 0 0 0z" fill="#000000" data-original="#000000" style="" class=""/><path d="m200.646 463.642h-31.373c-4.142 0-7.5 3.358-7.5 7.5s3.358 7.5 7.5 7.5h31.373c4.142 0 7.5-3.358 7.5-7.5s-3.358-7.5-7.5-7.5z" fill="#000000" data-original="#000000" style="" class=""/><path d="m341.753 463.642h-31.373c-4.142 0-7.5 3.358-7.5 7.5s3.358 7.5 7.5 7.5h31.373c4.142 0 7.5-3.358 7.5-7.5s-3.358-7.5-7.5-7.5z" fill="#000000" data-original="#000000" style="" class=""/></g></g></g></svg>
