<?xml version="1.0"?>
<svg xmlns="http://www.w3.org/2000/svg" xmlns:xlink="http://www.w3.org/1999/xlink" xmlns:svgjs="http://svgjs.com/svgjs" version="1.1" width="512" height="512" x="0" y="0" viewBox="0 0 512 512" style="enable-background:new 0 0 512 512" xml:space="preserve" class=""><g><path xmlns="http://www.w3.org/2000/svg" d="m184 360h-160v-80l63.38-48h96.62z" fill="#1188a4" data-original="#eb423f" style="" class=""/><path xmlns="http://www.w3.org/2000/svg" d="m24 280h48v32h-48z" fill="#e9eef2" data-original="#e9eef2" style=""/><path xmlns="http://www.w3.org/2000/svg" d="m184 232h-96l33-96h63z" fill="#e9eef2" data-original="#e9eef2" style=""/><path xmlns="http://www.w3.org/2000/svg" d="m168 304h320v56h-320z" fill="#686868" data-original="#962523" style="" class=""/><path xmlns="http://www.w3.org/2000/svg" d="m168 96h320v208h-320z" fill="#1188a4" data-original="#eb423f" style="" class=""/><circle xmlns="http://www.w3.org/2000/svg" cx="96" cy="376" fill="#757c80" r="40" data-original="#757c80" style="" class=""/><circle xmlns="http://www.w3.org/2000/svg" cx="416" cy="376" fill="#757c80" r="40" data-original="#757c80" style="" class=""/><path xmlns="http://www.w3.org/2000/svg" d="m264 128h128v112h-128z" fill="#c1c1c1" data-original="#f7b030" style="" class=""/><path xmlns="http://www.w3.org/2000/svg" d="m344 160h48v-32h-48-32-48v32h48" fill="#d3d3d3" data-original="#d46109" style="" class=""/><path xmlns="http://www.w3.org/2000/svg" d="m344 200-16-16-16 16v-72h32z" fill="#1188a4" data-original="#d13330" style="" class=""/><path xmlns="http://www.w3.org/2000/svg" d="m24 368h26.752a48 48 0 1 0 90.5 0h229.5a48 48 0 1 0 90.5 0h26.748a8 8 0 0 0 8-8v-256a8 8 0 0 0 -8-8h-320a8 8 0 0 0 -8 8v24h-39a8 8 0 0 0 -7.565 5.4l-32.48 94.488a39.749 39.749 0 0 0 -6.975 4.226l-54.81 41.51a8 8 0 0 0 -3.17 6.376v80a8 8 0 0 0 8 8zm392 48a32 32 0 1 1 32-32 32.036 32.036 0 0 1 -32 32zm-240-304h304v192h-304zm0 208h304v32h-28.261a47.915 47.915 0 0 0 -71.478 0h-204.261zm-80 96a32 32 0 1 1 32-32 32.036 32.036 0 0 1 -32 32zm30.709-272h33.291v80h-60.791zm-94.709 144h32v16h-32zm0 32h40a8 8 0 0 0 8-8v-32a8 8 0 0 0 -8-8h-24.186l35.827-27.133a24.141 24.141 0 0 1 14.489-4.867h61.87v112h-28.261a47.915 47.915 0 0 0 -71.478 0h-28.261z" fill="#000000" data-original="#000000" style="" class=""/><path xmlns="http://www.w3.org/2000/svg" d="m328 272h-48a8 8 0 0 0 0 16h48a8 8 0 0 0 0-16z" fill="#000000" data-original="#000000" style="" class=""/><path xmlns="http://www.w3.org/2000/svg" d="m376 272h-16a8 8 0 0 0 0 16h16a8 8 0 0 0 0-16z" fill="#000000" data-original="#000000" style="" class=""/><circle xmlns="http://www.w3.org/2000/svg" cx="136" cy="264" r="8" fill="#000000" data-original="#000000" style="" class=""/><path xmlns="http://www.w3.org/2000/svg" d="m392 128h-128a8 8 0 0 0 -8 8v112a8 8 0 0 0 8 8h128a8 8 0 0 0 8-8v-112a8 8 0 0 0 -8-8zm-72 16h16v44.687l-2.343-2.344a8 8 0 0 0 -11.314 0l-2.343 2.344zm-48 0h32v16h-32zm112 96h-112v-64h32v32a8 8 0 0 0 13.657 5.657l10.343-10.344 10.343 10.344a8 8 0 0 0 13.657-5.657v-32h32zm0-80h-32v-16h32z" fill="#000000" data-original="#000000" style="" class=""/></g></svg>
