<?xml version="1.0"?>
<svg xmlns="http://www.w3.org/2000/svg" xmlns:xlink="http://www.w3.org/1999/xlink" xmlns:svgjs="http://svgjs.com/svgjs" version="1.1" width="512" height="512" x="0" y="0" viewBox="0 0 512 512" style="enable-background:new 0 0 512 512" xml:space="preserve" class=""><g><g xmlns="http://www.w3.org/2000/svg"><g><path d="m441.683 454.79c28.66-35.776 26.422-88.141-6.744-121.307l-22.015-22.014c-.918-.918-1.513-2.109-1.697-3.394l-22.365-156.555c-.507-3.548-2.151-6.837-4.686-9.371l-7.81-7.81c-6.47-6.47-16.959-6.47-23.429 0l-11.714 11.715c-19.409 19.409-50.877 19.409-70.286 0l-35.143-35.143c-19.409-19.409-19.409-50.877 0-70.286l11.714-11.714c3.271-3.271 3.189-8.551-.095-11.809-12.947-12.844-33.855-12.813-46.762.095l-126.537 126.535 311.059 311.058z" fill="#686868" data-original="#9ca1af" style="" class=""/><path d="m235.794 40.624 11.714-11.714c3.235-3.235 3.235-8.479 0-11.714-12.939-12.939-33.918-12.939-46.858 0l-64.429 64.429 41 41c12.939 12.939 33.918 12.939 46.858 0l11.714-11.714c-19.408-19.41-19.408-50.878.001-70.287z" fill="#1188a4" data-original="#19cffc" style="" class=""/><path d="m441.683 454.79c28.66-35.776 26.422-88.141-6.744-121.307l-22.015-22.014c-.409-.409-.742-.878-1.015-1.379l-.399-.035c12.939 12.939 12.939 33.918 0 46.858-12.939 12.939-33.918 12.94-46.858 0l-35.143-35.143c-12.939-12.939-33.918-12.939-46.858 0l-15.25 15.25 117.772 117.77z" fill="#1188a4" data-original="#19cffc" style="" class=""/><g><path d="m411.909 310.09-.399-.035 1.414 1.414c-.408-.409-.742-.878-1.015-1.379z" fill="#717891" data-original="#717891" style=""/><path d="m409.964 454.79h31.719c28.66-35.776 26.422-88.141-6.744-121.307l-16.264-16.263c35.583 35.583 35.583 93.275 0 128.859z" fill="#1188a4" data-original="#27ade2" style="" class=""/></g><path d="m412.924 311.469c-.918-.918-1.513-2.109-1.697-3.394l-22.365-156.555c-.507-3.549-2.151-6.837-4.686-9.371l-7.81-7.81c-6.47-6.47-16.959-6.47-23.429 0l-5.857 5.857 16.009 112.067c1.014 7.097 4.302 13.674 9.372 18.743z" fill="#1188a4" data-original="#19cffc" style="" class=""/><path d="m392.244 454.79-160.924-160.924c-4.437-4.437-5.987-11-4.002-16.953l5.239-15.717c1.984-5.953.435-12.516-4.002-16.953l-129.09-129.09c-2.343-2.343-6.142-2.343-8.485 0l-30.9 30.901c-12.939 12.939-12.939 33.918 0 46.857l261.877 261.879z" fill="#f2f6fc" data-original="#f2f6fc" style="" class=""/></g><g><path d="m496.217 429.94c0-50.322-40.794-91.117-91.117-91.117h-31.133c-1.298 0-2.561-.421-3.6-1.2l-126.516-94.887c-2.868-2.151-6.355-3.313-9.94-3.313h-11.044c-9.15 0-16.567 7.417-16.567 16.567v16.567c0 27.448-22.251 49.7-49.7 49.7h-49.7c-27.449 0-49.7-22.251-49.7-49.7v-16.567c0-4.626-3.792-8.301-8.418-8.283-18.237.072-32.999 14.879-32.999 33.133v178.95h480.433v-29.85z" fill="#686868" data-original="#9ca1af" style="" class=""/><path d="m57.2 272.557v-16.567c0-4.575-3.709-8.283-8.283-8.283-18.299 0-33.133 14.834-33.133 33.133v91.117h57.983c18.299 0 33.133-14.834 33.133-33.133v-16.567c-27.449 0-49.7-22.251-49.7-49.7z" fill="#1188a4" data-original="#19cffc" style="" class=""/><path d="m405.1 338.824h-31.133c-.578 0-1.146-.096-1.693-.258l-.307.258c18.299 0 33.133 14.834 33.133 33.133s-14.834 33.133-33.133 33.133h-49.7c-18.299 0-33.133 14.834-33.133 33.133v21.567h207.083v-29.85c0-50.322-40.795-91.116-91.117-91.116z" fill="#1188a4" data-original="#19cffc" style="" class=""/><g><path d="m372.273 338.566-.307.258h2c-.578 0-1.145-.096-1.693-.258z" fill="#717891" data-original="#717891" style=""/><path d="m405.1 338.824h-23c50.322 0 91.117 40.794 91.117 91.117v29.85h23v-29.85c0-50.323-40.795-91.117-91.117-91.117z" fill="#1188a4" data-original="#27ade2" style="" class=""/></g><path d="m373.967 338.824c-1.298 0-2.561-.421-3.6-1.2l-126.516-94.887c-2.868-2.151-6.355-3.313-9.94-3.313h-11.044c-9.15 0-16.567 7.417-16.567 16.567v8.284l90.564 67.923c5.735 4.301 12.711 6.627 19.88 6.627h57.223z" fill="#1188a4" data-original="#19cffc" style="" class=""/><path d="m218.288 445.633-7.409-14.818c-2.806-5.612-8.543-9.158-14.818-9.158h-182.561c-3.314 0-6 2.686-6 6v43.7c0 18.299 14.834 33.133 33.133 33.133h430.733c18.299 0 33.133-14.834 33.133-33.133v-10.567c0-3.314-2.686-6-6-6h-265.394c-6.275 0-12.011-3.545-14.817-9.157z" fill="#f2f6fc" data-original="#f2f6fc" style="" class=""/><g><path d="m498.5 454.79h-23c3.314 0 6 2.686 6 6v10.567c0 18.299-14.834 33.133-33.133 33.133h23c18.299 0 33.133-14.834 33.133-33.133v-10.567c0-3.313-2.686-6-6-6z" fill="#cdd2e1" data-original="#cdd2e1" style=""/></g></g></g><path xmlns="http://www.w3.org/2000/svg" d="m504.5 447.29h-.783v-17.35c0-37.041-20.531-69.372-50.807-86.226-3.668-5.564-7.918-10.785-12.667-15.535l-21.661-21.661-6.793-47.551c4.012-.147 7.222-3.437 7.222-7.486 0-4.143-3.358-7.5-7.5-7.5h-1.863l-3.716-26.014c4.012-.148 7.221-3.437 7.221-7.486 0-4.143-3.358-7.5-7.5-7.5h-1.862l-3.716-26.014c4.012-.148 7.222-3.437 7.222-7.486 0-4.143-3.358-7.5-7.5-7.5h-1.863l-1.646-11.523c-.732-5.122-3.149-9.957-6.807-13.614l-7.81-7.81c-9.384-9.383-24.652-9.383-34.036.001l-11.715 11.715c-16.455 16.453-43.227 16.453-59.68 0l-35.144-35.143c-16.454-16.454-16.454-43.228 0-59.681l11.715-11.714c6.153-6.154 6.153-16.167-.001-22.322-15.843-15.842-41.621-15.842-57.464 0l-64.426 64.429c-.001 0-.001.001-.001.001 0 .001-.001.001-.001.001l-29.839 29.839-.554-.554c-1.406-1.406-3.314-2.196-5.303-2.196s-3.897.79-5.303 2.196l-23.425 23.426c-.001.001-.002.002-.003.003s-.002.002-.003.003l-11.713 11.712c-7.675 7.675-11.901 17.878-11.901 28.732s4.227 21.058 11.901 28.732l114.57 114.57c-4.023 1.278-8.304 1.972-12.745 1.972h-49.7c-23.269 0-42.2-18.931-42.2-42.2v-16.566c0-8.703-7.081-15.783-15.784-15.783-22.405 0-40.633 18.228-40.633 40.633v133.317h-.783c-4.142 0-7.5 3.357-7.5 7.5v49.7c0 22.405 18.228 40.633 40.633 40.633h134.1c4.142 0 7.5-3.357 7.5-7.5s-3.358-7.5-7.5-7.5h-27.2v-25.633c0-7.371-2.059-13.151-6.121-17.182-7.143-7.088-18.338-6.998-30.19-6.908-1.414.011-2.858.023-4.323.023h-91.899v-18.133h176.167c.008 0 .017.002.025.002s.016-.002.023-.002h4.845c3.457 0 6.564 1.92 8.109 5.011l7.409 14.819c4.104 8.205 12.352 13.303 21.526 13.303h263.896v9.067c0 14.134-11.499 25.633-25.633 25.633h-266.634c-4.142 0-7.5 3.357-7.5 7.5s3.358 7.5 7.5 7.5h266.634c22.405 0 40.633-18.228 40.633-40.633v-16.567c0-4.142-3.358-7.5-7.5-7.5zm-15.783-17.349v17.35h-192.084v-9.066c0-14.135 11.499-25.634 25.633-25.634h49.7c22.405 0 40.633-18.228 40.633-40.633 0-9.712-3.429-18.636-9.135-25.634h1.635c46.107-.001 83.618 37.51 83.618 83.617zm-274.917-173.951c0-4.999 4.067-9.066 9.067-9.066h2.87c.012 0 .024.002.035.002.009 0 .019-.002.028-.002h8.111c1.949 0 3.881.644 5.44 1.814l7.597 5.698-4.535 4.535c-2.929 2.93-2.929 7.678 0 10.607 1.464 1.464 3.384 2.196 5.303 2.196s3.839-.732 5.303-2.196l6.05-6.05 21.011 15.758-4.535 4.535c-2.929 2.93-2.929 7.678 0 10.607 1.464 1.464 3.384 2.196 5.303 2.196s3.839-.732 5.303-2.196l6.05-6.05 21.012 15.758-4.535 4.535c-2.929 2.93-2.929 7.678 0 10.607 1.464 1.464 3.384 2.196 5.303 2.196s3.839-.732 5.303-2.196l6.051-6.051 24.129 18.097h-32.722c-5.51 0-10.972-1.82-15.38-5.126l-87.562-65.674zm150.853-119.003c2.422 0 4.699.943 6.411 2.656l7.81 7.81c1.378 1.378 2.288 3.198 2.564 5.128l1.343 9.402h-6.414c-4.142 0-7.5 3.357-7.5 7.5s3.358 7.5 7.5 7.5h8.556l3.714 26h-6.414c-4.142 0-7.5 3.357-7.5 7.5s3.358 7.5 7.5 7.5h8.557l3.714 26h-6.414c-4.142 0-7.5 3.357-7.5 7.5s3.358 7.5 7.5 7.5h8.556l4.266 29.858-23.138-23.138c-3.896-3.896-6.471-9.046-7.25-14.5l-15.48-108.356 3.205-3.205c1.715-1.712 3.991-2.655 6.414-2.655zm-22.941 18.659 13.954 97.679c1.235 8.646 5.317 16.81 11.493 22.986l56.837 56.837c-6.118-1.192-12.434-1.824-18.896-1.824h-30.633l-38.427-28.82c2.733-2.942 2.675-7.537-.187-10.4-2.929-2.928-7.678-2.928-10.606 0l-1.317 1.317-21.023-15.767c2.733-2.942 2.676-7.537-.187-10.401-2.929-2.928-7.678-2.928-10.606 0l-1.318 1.318-21.022-15.767c2.733-2.942 2.676-7.537-.187-10.401-2.929-2.928-7.678-2.928-10.606 0l-1.318 1.318-9.31-6.983c-3.151-2.364-6.876-3.912-10.758-4.52l35.931-74.29c20.552 14.243 48.418 13.486 68.186-2.282zm-135.758-133.148c9.994-9.995 26.257-9.994 36.252.001.305.305.305.802 0 1.106l-11.715 11.715c-20.504 20.503-22.141 52.82-4.945 75.231l-6.77 6.77c-4.841 4.841-11.278 7.508-18.126 7.508-6.847 0-13.284-2.667-18.126-7.509l-35.697-35.696zm-69.732 69.733 35.697 35.697c7.675 7.674 17.879 11.901 28.732 11.901 10.854 0 21.058-4.228 28.732-11.901l6.411-6.411 26.07 26.071-38.91 80.449-111.269-111.269zm-78.349 77.252c0-6.848 2.667-13.284 7.508-18.125l6.411-6.412 64.983 64.982c1.064 1.065 2.121 2.105 3.156 3.125 5.885 5.794 11.971 11.785 11.985 15.602.006 1.575-1.147 3.53-3.427 5.811l-18.126 18.126-64.983-64.983c-4.84-4.842-7.507-11.28-7.507-18.126zm83.098 93.714 18.125-18.125c5.212-5.212 7.843-10.756 7.821-16.477-.039-10.064-8.016-17.917-16.462-26.232-1.008-.992-2.037-2.005-3.073-3.042l-64.983-64.982 12.822-12.822.55.549.005.005.005.005 113.837 113.837c-6.512 4.311-10.817 11.699-10.817 20.077v16.566c0 13.228-6.123 25.049-15.678 32.792zm-92.055-7.99c.432 0 .784.352.784.783v16.566c0 28.997 21.693 53.006 49.7 56.693v9.574c0 14.135-11.499 25.634-25.633 25.634h-50.484v-83.617c0-14.134 11.499-25.633 25.633-25.633zm-25.633 124.25h50.483c22.405 0 40.633-18.229 40.633-40.634v-9.066h36.869l29.373 84.4h-157.358zm83.617 82.833c1.505 0 2.987-.012 4.44-.023 8.26-.069 16.799-.13 19.507 2.556 1.119 1.11 1.686 3.309 1.686 6.534v25.633h-91.9c-14.134 0-25.633-11.499-25.633-25.632v-9.067h91.9zm118.096-20.01-7.409-14.819c-4.032-8.064-12.072-13.115-21.057-13.286l-29.703-85.35c6.713-1.217 13.021-3.605 18.704-6.952.413-.199.811-.438 1.189-.716 14.515-9.029 24.706-24.37 26.708-42.16l78.937 59.203c6.988 5.24 15.646 8.126 24.38 8.126h55.222c14.134 0 25.633 11.499 25.633 25.634 0 14.134-11.499 25.633-25.633 25.633h-49.7c-22.405 0-40.633 18.228-40.633 40.634v9.066h-48.528c-3.457-.003-6.565-1.923-8.11-5.013z" fill="#000000" data-original="#000000" style="" class=""/></g></svg>
