<?xml version="1.0"?>
<svg xmlns="http://www.w3.org/2000/svg" xmlns:xlink="http://www.w3.org/1999/xlink" xmlns:svgjs="http://svgjs.com/svgjs" version="1.1" width="512" height="512" x="0" y="0" viewBox="0 0 512 512" style="enable-background:new 0 0 512 512" xml:space="preserve" class=""><g><path xmlns="http://www.w3.org/2000/svg" d="m408 168h-112l8-80h96z" fill="#ffd33a" data-original="#ffd33a" style="" class=""/><path xmlns="http://www.w3.org/2000/svg" d="m440 168h-32l-8-80h32z" fill="#f7b030" data-original="#f7b030" style=""/><path xmlns="http://www.w3.org/2000/svg" d="m144 152 48 160 256-16 32-144z" fill="#9aa3a8" data-original="#9aa3a8" style="" class=""/><path xmlns="http://www.w3.org/2000/svg" d="m280 152h-112l8-96h96z" fill="#1188a4" data-original="#eb423f" style="" class=""/><path xmlns="http://www.w3.org/2000/svg" d="m312 152h-32l-8-96h32z" fill="#1188a4" data-original="#c7312e" style="" class=""/><circle xmlns="http://www.w3.org/2000/svg" cx="192" cy="440" fill="#4f5659" r="48" data-original="#4f5659" style=""/><circle xmlns="http://www.w3.org/2000/svg" cx="192" cy="440" fill="#e9eef2" r="16" data-original="#e9eef2" style=""/><circle xmlns="http://www.w3.org/2000/svg" cx="440" cy="440" fill="#4f5659" r="48" data-original="#4f5659" style=""/><circle xmlns="http://www.w3.org/2000/svg" cx="440" cy="440" fill="#e9eef2" r="16" data-original="#e9eef2" style=""/><path xmlns="http://www.w3.org/2000/svg" d="m208 360v-48l-68.718-244.332a16 16 0 0 0 -15.403-11.668h-83.879a16 16 0 0 0 -16 16 16 16 0 0 0 16 16h59.931a16 16 0 0 1 15.385 11.6l60.684 212.4v80h296a16 16 0 0 0 16-16 16 16 0 0 0 -16-16z" fill="#dadcde" data-original="#dadcde" style="" class=""/><path xmlns="http://www.w3.org/2000/svg" d="m88 56v32h-48a16 16 0 0 1 0-32z" fill="#1188a4" data-original="#eb423f" style="" class=""/><path xmlns="http://www.w3.org/2000/svg" d="m192 464a24 24 0 1 0 -24-24 24.028 24.028 0 0 0 24 24zm0-32a8 8 0 1 1 -8 8 8.009 8.009 0 0 1 8-8z" fill="#000000" data-original="#000000" style="" class=""/><path xmlns="http://www.w3.org/2000/svg" d="m440 416a24 24 0 1 0 24 24 24.028 24.028 0 0 0 -24-24zm0 32a8 8 0 1 1 8-8 8.009 8.009 0 0 1 -8 8z" fill="#000000" data-original="#000000" style="" class=""/><path xmlns="http://www.w3.org/2000/svg" d="m496 376a24.028 24.028 0 0 0 -24-24h-256v-32.515l232.532-15.5a8 8 0 0 0 7.278-6.247l32-144a8 8 0 0 0 -7.81-9.738h-34.36l-5.68-56.8a8 8 0 0 0 -7.96-7.2h-24v-8a23.984 23.984 0 0 0 -40-17.869 23.984 23.984 0 0 0 -40 17.869v8h-13.972l-2.055-24.664a8 8 0 0 0 -7.973-7.336h-24v-8a23.984 23.984 0 0 0 -40-17.869 23.984 23.984 0 0 0 -40 17.869v8h-24a8 8 0 0 0 -7.973 7.336l-5.463 65.564-15.582-55.4a24.083 24.083 0 0 0 -23.1-17.5h-83.882a24 24 0 0 0 0 48h59.932a8.033 8.033 0 0 1 7.691 5.8l60.377 211.32v76.294a56.036 56.036 0 1 0 63.139 10.586h169.722a56 56 0 1 0 77.4-.834 24.04 24.04 0 0 0 17.739-23.166zm-144.938-216-3.556 32h-55.251l-3.369-32zm62.965 0-7.111 32h-43.311l3.555-32zm-131.127 96h-36.83l-10.1-48h41.88zm11.036-48h51.789l-5.325 48h-41.4zm-9.352 64 2.81 26.689-31.892 2.126-6.064-28.815zm16.089 0h37.941l-2.568 23.116 1.852.206-34.528 2.3zm54.04 0h34.422l-4.49 20.206-32.417 2.161zm1.778-16 5.333-48h41.536l-10.666 48zm-83.7-96 3.368 32h-43.559l-6.737-32zm-63.289 0 6.737 32h-33.679l-9-32zm10.105 48 10.106 48h-29.153l-13.5-48zm13.474 64 6.293 29.89-25.437 1.7-8.877-31.59zm168.2 19.1 4.244-19.1h39.609l-3.648 16.416zm46.719-31.978v-3.122h-38.916l10.667-48h39.61zm14.916-67.122h-39.61l7.111-32h39.61zm-33.355-48h-15.921l-4.8-48h15.92zm-45.561-80a8.009 8.009 0 0 1 8 8v8h-16v-8a8.009 8.009 0 0 1 8-8zm-40 8a8 8 0 0 1 16 0v8h-16zm-16 24v8a8 8 0 0 0 16 0v-8h16v8a8 8 0 0 0 16 0v-8h16.76l4.8 48h-78.2l-4-48zm-24.695 48h-15.944l-6.661-80h15.944zm-47.305-112a8.009 8.009 0 0 1 8 8v8h-16v-8a8.009 8.009 0 0 1 8-8zm-40 8a8 8 0 0 1 16 0v8h-16zm-32.639 24h16.639v8a8 8 0 0 0 16 0v-8h16v8a8 8 0 0 0 16 0v-8h16.639l6.667 80h-94.612zm-151.361 8a8.009 8.009 0 0 1 8-8h40v16h-40a8.009 8.009 0 0 1 -8-8zm200 368a40 40 0 1 1 -40-40 40.045 40.045 0 0 1 40 40zm248 0a40 40 0 1 1 -40-40 40.045 40.045 0 0 1 40 40zm-8-56h-288v-72a8.013 8.013 0 0 0 -.308-2.2l-60.684-212.4a24.1 24.1 0 0 0 -23.076-17.4h-3.932v-16h27.879a8.027 8.027 0 0 1 7.7 5.834l68.421 243.266v46.9a8 8 0 0 0 8 8h264a8 8 0 0 1 0 16z" fill="#000000" data-original="#000000" style="" class=""/></g></svg>
