<?xml version="1.0"?>
<svg xmlns="http://www.w3.org/2000/svg" xmlns:xlink="http://www.w3.org/1999/xlink" xmlns:svgjs="http://svgjs.com/svgjs" version="1.1" width="512" height="512" x="0" y="0" viewBox="0 0 512 512" style="enable-background:new 0 0 512 512" xml:space="preserve" class=""><g><path xmlns="http://www.w3.org/2000/svg" d="m248 248h80a0 0 0 0 1 0 0v112a16 16 0 0 1 -16 16h-64a0 0 0 0 1 0 0v-128a0 0 0 0 1 0 0z" fill="#f0c6a4" data-original="#f0c6a4" style="" class=""/><path xmlns="http://www.w3.org/2000/svg" d="m328 272h112v80h-112z" fill="#f0c6a4" data-original="#f0c6a4" style="" class=""/><path xmlns="http://www.w3.org/2000/svg" d="m144 136h144l-2.79-40-1.11-16-1.12-16-1.11-16-.65-9.33a16 16 0 0 0 -15.94-14.67h-98.56a16 16 0 0 0 -15.94 14.67l-.65 9.33-1.11 16-1.12 16-1.11 16z" fill="#686868" data-original="#4f5659" style="" class=""/><path xmlns="http://www.w3.org/2000/svg" d="m144 136 8 48h128l8-48z" fill="#686868" data-original="#4f5659" style="" class=""/><path xmlns="http://www.w3.org/2000/svg" d="m190.48 424h51.04a16 16 0 0 0 15.921-14.408l22.559-225.592h-128l22.559 225.592a16 16 0 0 0 15.921 14.408z" fill="#1188a4" data-original="#3397e8" style="" class=""/><rect xmlns="http://www.w3.org/2000/svg" fill="#1188a4" height="32" rx="16" transform="matrix(-1 0 0 -1 432 272)" width="160" x="136" y="120" data-original="#a3d4f7" style="" class=""/><path xmlns="http://www.w3.org/2000/svg" d="m200 456h32l8-32h-48z" fill="#1188a4" data-original="#2978b8" style="" class=""/><rect xmlns="http://www.w3.org/2000/svg" fill="#f0c6a4" height="32" rx="16" width="96" x="136" y="248" data-original="#f0c6a4" style="" class=""/><rect xmlns="http://www.w3.org/2000/svg" fill="#e8bf9e" height="32" rx="16" width="112" x="136" y="280" data-original="#e8bf9e" style="" class=""/><rect xmlns="http://www.w3.org/2000/svg" fill="#e0b999" height="32" rx="16" width="96" x="136" y="312" data-original="#e0b999" style="" class=""/><rect xmlns="http://www.w3.org/2000/svg" fill="#d1ad8f" height="32" rx="16" width="80" x="136" y="344" data-original="#d1ad8f" style="" class=""/><path xmlns="http://www.w3.org/2000/svg" d="m208 216h104a16 16 0 0 1 16 16v16a0 0 0 0 1 0 0h-120a16 16 0 0 1 -16-16 16 16 0 0 1 16-16z" fill="#f0c6a4" data-original="#f0c6a4" style="" class=""/><path xmlns="http://www.w3.org/2000/svg" d="m440 264h-104v-32a24.027 24.027 0 0 0 -24-24h-26.36l2.3-22.948 4.781-28.712a23.967 23.967 0 0 0 1.985-39.29l-5.5-78.937c0-.035 0-.071-.009-.107a24.137 24.137 0 0 0 -23.917-22.006h-98.56a24.137 24.137 0 0 0 -23.912 22.006c0 .036-.006.072-.009.107l-5.5 78.937a23.967 23.967 0 0 0 1.975 39.284l4.792 28.724 5.506 55.065a23.983 23.983 0 0 0 -15.441 39.877 23.943 23.943 0 0 0 0 32 23.943 23.943 0 0 0 0 32 23.984 23.984 0 0 0 17.869 40h11.96l2.64 26.388a23.912 23.912 0 0 0 19.029 21.112l6.61 26.44a8 8 0 0 0 7.761 6.06h8v8a8.009 8.009 0 0 1 -8 8h-48a8.009 8.009 0 0 1 -8-8v-32a24.027 24.027 0 0 0 -24-24h-48a8 8 0 0 0 0 16h48a8.009 8.009 0 0 1 8 8v32a24.027 24.027 0 0 0 24 24h48a24.027 24.027 0 0 0 24-24v-8h8a8 8 0 0 0 7.761-6.06l6.61-26.44a23.912 23.912 0 0 0 19.029-21.114l2.64-26.386h43.96a24.027 24.027 0 0 0 24-24h104a8 8 0 0 0 8-8v-80a8 8 0 0 0 -8-8zm-232-56a23.992 23.992 0 0 0 -22.624 32h-19.736l-4.8-48h110.32l-1.6 16zm-16-96v-16h16v16zm32-16h16v16h-16zm32 0h21.2l1.115 16h-22.315zm20.081-16h-20.081v-16h18.966zm-36.081 0h-16v-16h16zm-16-32v-16h16v16zm-16 0h-16v-16h16zm0 16v16h-16v-16zm-32 16h-20.081l1.115-16h18.966zm0 16v16h-22.311l1.111-16zm-24 32h128a8 8 0 0 1 0 16h-128a8 8 0 0 1 0-16zm104 48v-16h19.887l-2.665 16zm-48-16v16h-16v-16zm16 0h16v16h-16zm-48 0v16h-17.224l-2.669-16zm97.244-120.71.607 8.71h-17.851v-16h9.28a8.044 8.044 0 0 1 7.964 7.29zm-106.524-7.29h9.28v16h-17.851l.607-8.71a8.044 8.044 0 0 1 7.964-7.29zm-14.72 224h64a8 8 0 0 1 0 16h-64a8 8 0 0 1 0-16zm72 72a8.009 8.009 0 0 1 -8 8h-64a8 8 0 0 1 0-16h64a8.009 8.009 0 0 1 8 8zm8-24h-80a8 8 0 0 1 0-16h80a8 8 0 0 1 0 16zm-88 56a8.009 8.009 0 0 1 8-8h48a8 8 0 0 1 0 16h-48a8.009 8.009 0 0 1 -8-8zm62.246 88-4-16h27.508l-4 16zm35.274-32h-51.04a7.977 7.977 0 0 1 -7.959-7.206l-2.481-24.794h19.96a23.985 23.985 0 0 0 22.3-32.846 23.977 23.977 0 0 0 16-32 24 24 0 0 0 0-46.308 23.923 23.923 0 0 0 .324-16.846h26.136l-11.921 119.2-3.359 33.588a7.979 7.979 0 0 1 -7.96 7.212zm190.48-72h-104a8 8 0 0 0 -8 8v8a8.009 8.009 0 0 1 -8 8h-42.36l11.921-119.2a8 8 0 0 0 -7.961-8.8h-65.6a8 8 0 1 1 0-16h104a8.009 8.009 0 0 1 8 8v72a8 8 0 0 0 16 0v-24h96z" fill="#000000" data-original="#000000" style="" class=""/></g></svg>
