<?xml version="1.0"?>
<svg xmlns="http://www.w3.org/2000/svg" xmlns:xlink="http://www.w3.org/1999/xlink" xmlns:svgjs="http://svgjs.com/svgjs" version="1.1" width="512" height="512" x="0" y="0" viewBox="0 0 512 512" style="enable-background:new 0 0 512 512" xml:space="preserve" class=""><g><path xmlns="http://www.w3.org/2000/svg" d="m328 360h112v96h-112z" fill="#686868" data-original="#75452e" style="" class=""/><path xmlns="http://www.w3.org/2000/svg" d="m328 264h112v96h-112z" fill="#1188a4" data-original="#95573a" style="" class=""/><path xmlns="http://www.w3.org/2000/svg" d="m328 136h112v96h-112z" fill="#686868" data-original="#75452e" style="" class=""/><path xmlns="http://www.w3.org/2000/svg" d="m184 136h112v96h-112z" fill="#1188a4" data-original="#95573a" style="" class=""/><path xmlns="http://www.w3.org/2000/svg" d="m184 360h112v96h-112z" fill="#1188a4" data-original="#95573a" style="" class=""/><path xmlns="http://www.w3.org/2000/svg" d="m184 264h112v96h-112z" fill="#686868" data-original="#75452e" style="" class=""/><path xmlns="http://www.w3.org/2000/svg" d="m72 136h112v96h-112z" fill="#686868" data-original="#75452e" style="" class=""/><path xmlns="http://www.w3.org/2000/svg" d="m72 40h112v96h-112z" fill="#1188a4" data-original="#95573a" style="" class=""/><path xmlns="http://www.w3.org/2000/svg" d="m72 360h112v96h-112z" fill="#686868" data-original="#75452e" style="" class=""/><path xmlns="http://www.w3.org/2000/svg" d="m72 264h112v96h-112z" fill="#1188a4" data-original="#95573a" style="" class=""/><g xmlns="http://www.w3.org/2000/svg" fill="#d49073"><path d="m104 136h48v32h-48z" fill="#d9d9d9" data-original="#d49073" style="" class=""/><path d="m104 40h48v32h-48z" fill="#d9d9d9" data-original="#d49073" style="" class=""/><path d="m104 360h48v32h-48z" fill="#d9d9d9" data-original="#d49073" style="" class=""/><path d="m104 264h48v32h-48z" fill="#d9d9d9" data-original="#d49073" style="" class=""/><path d="m216 136h48v32h-48z" fill="#d9d9d9" data-original="#d49073" style="" class=""/><path d="m216 360h48v32h-48z" fill="#d9d9d9" data-original="#d49073" style="" class=""/><path d="m360 360h48v32h-48z" fill="#d9d9d9" data-original="#d49073" style="" class=""/><path d="m360 264h48v32h-48z" fill="#d9d9d9" data-original="#d49073" style="" class=""/><path d="m360 136h48v32h-48z" fill="#d9d9d9" data-original="#d49073" style="" class=""/><path d="m216 264h48v32h-48z" fill="#d9d9d9" data-original="#d49073" style="" class=""/></g><path xmlns="http://www.w3.org/2000/svg" d="m40 24h32v464h-32z" fill="#b7b7b7" data-original="#663c28" style="" class=""/><path xmlns="http://www.w3.org/2000/svg" d="m296 24h32v464h-32z" fill="#b7b7b7" data-original="#663c28" style="" class=""/><path xmlns="http://www.w3.org/2000/svg" d="m440 24h32v464h-32z" fill="#b7b7b7" data-original="#663c28" style="" class=""/><path xmlns="http://www.w3.org/2000/svg" d="m168 136h32v224h-32z" fill="#c9c9c9" transform="matrix(0 1 -1 0 432 64)" data-original="#b37a60" style="" class=""/><path xmlns="http://www.w3.org/2000/svg" d="m368 192h32v112h-32z" fill="#c9c9c9" transform="matrix(0 1 -1 0 632 -136)" data-original="#b37a60" style="" class=""/><path xmlns="http://www.w3.org/2000/svg" d="m168 360h32v224h-32z" fill="#c9c9c9" transform="matrix(0 1 -1 0 656 288)" data-original="#b37a60" style="" class=""/><path xmlns="http://www.w3.org/2000/svg" d="m368 416h32v112h-32z" fill="#c9c9c9" transform="matrix(0 1 -1 0 856 88)" data-original="#b37a60" style="" class=""/><path xmlns="http://www.w3.org/2000/svg" d="m40 496h432a8 8 0 0 0 8-8v-464a8 8 0 0 0 -8-8h-32a8 8 0 0 0 -8 8v104h-96v-104a8 8 0 0 0 -8-8h-32a8 8 0 0 0 -8 8v104h-96v-88a8 8 0 0 0 -8-8h-104v-8a8 8 0 0 0 -8-8h-32a8 8 0 0 0 -8 8v464a8 8 0 0 0 8 8zm408-464h16v448h-16zm-80 240h32v16h-32zm-32-16v-16h96v16zm16 16v24a8 8 0 0 0 8 8h48a8 8 0 0 0 8-8v-24h16v80h-96v-80zm16 96h32v16h-32zm-16 0v24a8 8 0 0 0 8 8h48a8 8 0 0 0 8-8v-24h16v80h-96v-80zm80 96v16h-96v-16zm-64-320h32v16h-32zm-16 0v24a8 8 0 0 0 8 8h48a8 8 0 0 0 8-8v-24h16v80h-96v-80zm-48-112h16v448h-16zm-192 112h32v16h-32zm-8 32h48a8 8 0 0 0 8-8v-24h16v80h-96v-80h16v24a8 8 0 0 0 8 8zm184 64v16h-208v-16zm-64 128h32v16h-32zm-8 32h48a8 8 0 0 0 8-8v-24h16v80h-96v-80h16v24a8 8 0 0 0 8 8zm-24-48v-80h16v24a8 8 0 0 0 8 8h48a8 8 0 0 0 8-8v-24h16v80zm32-80h32v16h-32zm-112 0h32v16h-32zm-16 0v24a8 8 0 0 0 8 8h48a8 8 0 0 0 8-8v-24h16v80h-96v-80zm16 96h32v16h-32zm-16 0v24a8 8 0 0 0 8 8h48a8 8 0 0 0 8-8v-24h16v80h-96v-80zm192 96v16h-208v-16zm-64-320h32v16h-32zm-16 0v24a8 8 0 0 0 8 8h48a8 8 0 0 0 8-8v-24h16v80h-96v-80zm-96-96h32v16h-32zm-16 0v24a8 8 0 0 0 8 8h48a8 8 0 0 0 8-8v-24h16v80h-96v-80zm-48-16h16v448h-16z" fill="#000000" data-original="#000000" style="" class=""/></g></svg>
