<?xml version="1.0"?>
<svg xmlns="http://www.w3.org/2000/svg" xmlns:xlink="http://www.w3.org/1999/xlink" xmlns:svgjs="http://svgjs.com/svgjs" version="1.1" width="512" height="512" x="0" y="0" viewBox="0 0 512 512" style="enable-background:new 0 0 512 512" xml:space="preserve" class=""><g><circle xmlns="http://www.w3.org/2000/svg" cx="288" cy="216" fill="#f0c6a4" r="32" data-original="#f0c6a4" style="" class=""/><circle xmlns="http://www.w3.org/2000/svg" cx="80" cy="216" fill="#f0c6a4" r="32" data-original="#f0c6a4" style="" class=""/><rect xmlns="http://www.w3.org/2000/svg" fill="#f7cca9" height="240" rx="104" width="208" x="80" y="72" data-original="#f7cca9" style="" class=""/><circle xmlns="http://www.w3.org/2000/svg" cx="184" cy="48" fill="#686868" r="24" data-original="#bd620e" style="" class=""/><path xmlns="http://www.w3.org/2000/svg" d="m56 312h256a32 32 0 0 1 32 32v144a0 0 0 0 1 0 0h-320a0 0 0 0 1 0 0v-144a32 32 0 0 1 32-32z" fill="#686868" data-original="#35a872" style="" class=""/><path xmlns="http://www.w3.org/2000/svg" d="m141.82 56h84.36a69.82 69.82 0 0 1 69.82 69.82v26.18a0 0 0 0 1 0 0h-224a0 0 0 0 1 0 0v-26.18a69.82 69.82 0 0 1 69.82-69.82z" fill="#1188a4" data-original="#f7b030" style="" class=""/><path xmlns="http://www.w3.org/2000/svg" d="m320 184-132.261-15.632a31.811 31.811 0 0 0 -7.478 0l-132.261 15.632v-3.56a32.1 32.1 0 0 1 28.261-31.928l104-12.292a31.919 31.919 0 0 1 7.478 0l104 12.292a32.1 32.1 0 0 1 28.261 31.928z" fill="#686868" data-original="#bd620e" style="" class=""/><path xmlns="http://www.w3.org/2000/svg" d="m184 368-48 24v-80z" fill="#686868" data-original="#20754d" style="" class=""/><path xmlns="http://www.w3.org/2000/svg" d="m184 368 48 24v-80z" fill="#686868" data-original="#20754d" style="" class=""/><path xmlns="http://www.w3.org/2000/svg" d="m72 312h32v128h-32z" fill="#1188a4" data-original="#f7b030" style="" class=""/><path xmlns="http://www.w3.org/2000/svg" d="m264 312h32v128h-32z" fill="#c7312e" data-original="#c7312e" style=""/><path xmlns="http://www.w3.org/2000/svg" d="m456 312h32v128h-32z" fill="#c7312e" data-original="#c7312e" style=""/><path xmlns="http://www.w3.org/2000/svg" d="m72 424h224v64h-224z" fill="#1188a4" data-original="#f7b030" style="" class=""/><path xmlns="http://www.w3.org/2000/svg" d="m216 464h-64a8 8 0 0 1 0-16h64a8 8 0 0 1 0 16z" fill="#686868" data-original="#bd620e" style="" class=""/><path xmlns="http://www.w3.org/2000/svg" d="m264 312h224v32h-224z" fill="#eb423f" data-original="#eb423f" style="" class=""/><path xmlns="http://www.w3.org/2000/svg" d="m328 344h32v64h-32z" fill="#dadcde" data-original="#dadcde" style=""/><path xmlns="http://www.w3.org/2000/svg" d="m360 344h-32l8-48h16z" fill="#e9eef2" data-original="#e9eef2" style="" class=""/><path xmlns="http://www.w3.org/2000/svg" d="m424 296h32a0 0 0 0 1 0 0v176a16 16 0 0 1 -16 16 16 16 0 0 1 -16-16v-176a0 0 0 0 1 0 0z" fill="#dadcde" data-original="#dadcde" style=""/><path xmlns="http://www.w3.org/2000/svg" d="m456 234.742v37.258l-16 16-16-16v-37.258a48 48 0 1 0 32 0z" fill="#e9eef2" data-original="#e9eef2" style="" class=""/><path xmlns="http://www.w3.org/2000/svg" d="m264 408h224v80h-224z" fill="#eb423f" data-original="#eb423f" style="" class=""/><path xmlns="http://www.w3.org/2000/svg" d="m184 368-48-56h96z" fill="#e9eef2" data-original="#e9eef2" style="" class=""/><circle xmlns="http://www.w3.org/2000/svg" cx="224" cy="216" r="8" fill="#000000" data-original="#000000" style="" class=""/><circle xmlns="http://www.w3.org/2000/svg" cx="144" cy="216" r="8" fill="#000000" data-original="#000000" style="" class=""/><path xmlns="http://www.w3.org/2000/svg" d="m176 240h16a8 8 0 0 0 0-16h-8v-8a8 8 0 0 0 -16 0v16a8 8 0 0 0 8 8z" fill="#000000" data-original="#000000" style="" class=""/><path xmlns="http://www.w3.org/2000/svg" d="m227.077 240.615a8 8 0 0 0 -10.462 4.308c-.079.191-8.23 19.077-32.615 19.077-23.956 0-32.248-18.238-32.636-19.126a8 8 0 0 0 -14.749 6.2c.492 1.184 12.453 28.926 47.385 28.926s46.893-27.742 47.385-28.923a8 8 0 0 0 -4.308-10.462z" fill="#000000" data-original="#000000" style="" class=""/><path xmlns="http://www.w3.org/2000/svg" d="m152 464h64a8 8 0 0 0 0-16h-64a8 8 0 0 0 0 16z" fill="#000000" data-original="#000000" style="" class=""/><path xmlns="http://www.w3.org/2000/svg" d="m490.4 304.366a55.947 55.947 0 0 0 -31.733-77.166 8 8 0 0 0 -10.667 7.542v33.944l-8 8-8-8v-33.944a8 8 0 0 0 -10.667-7.542 55.946 55.946 0 0 0 -31.9 76.8h-27.989l-1.552-9.315a8 8 0 0 0 -7.892-6.685h-16a8 8 0 0 0 -7.892 6.685l-1.552 9.315h-84.925a112.769 112.769 0 0 0 43.548-48h2.821a39.978 39.978 0 0 0 31.977-64h.023a8 8 0 0 0 8-8v-3.561a40.169 40.169 0 0 0 -24-36.792v-17.827a77.908 77.908 0 0 0 -77.82-77.82h-10.18a32 32 0 0 0 -64 0h-10.18a77.908 77.908 0 0 0 -77.82 77.82v17.828a40.166 40.166 0 0 0 -24 36.791v3.561a8 8 0 0 0 8.024 8 39.978 39.978 0 0 0 31.976 64h2.821a112.769 112.769 0 0 0 43.548 48h-70.369a40.045 40.045 0 0 0 -40 40v144a8 8 0 0 0 8 8h464a8 8 0 0 0 8-8v-176a8 8 0 0 0 -5.6-7.634zm-10.4 95.634h-16v-48h16zm-.839-80h.839v16h-16v-5.4a55.807 55.807 0 0 0 15.161-10.6zm-63.161-72v24a8 8 0 0 0 2.343 5.657l16 16a8 8 0 0 0 11.314 0l16-16a8 8 0 0 0 2.343-5.657v-24a40 40 0 0 1 -10.667 69.711 8 8 0 0 0 -5.333 7.547v74.742h-16v-74.742a8 8 0 0 0 -5.333-7.543 40 40 0 0 1 -10.667-69.715zm-112 152v-48h16v48zm-48 16h-144v-96h16v72a8 8 0 0 0 11.578 7.155l44.422-22.211 44.422 22.211a8 8 0 0 0 11.578-7.155v-72h16zm-176 0v-96h16v96zm176 16v48h-176v-48zm-41.394-112-30.606 35.707-30.606-35.707zm9.394 13.626v45.43l-27.258-13.629zm-52.742 31.8-27.258 13.63v-45.43zm100.742-13.426h16v48h-16zm64 0h16v48h-16zm32 0h48v48h-48zm32-32v-.829a55.85 55.85 0 0 0 16 11.429v5.4h-49.223l-2.666-16zm-54.777-16 5.333 32h-13.112l5.333-32zm-73.223 16h51.889l-2.666 16h-49.223zm19.408-80.246a111.652 111.652 0 0 0 4.592-31.754v-14.624a24 24 0 0 1 -4.592 46.378zm-107.408-207.754a16.019 16.019 0 0 1 16 16h-32a16.019 16.019 0 0 1 16-16zm-42.18 32h84.36a61.89 61.89 0 0 1 61.82 61.82v14.194l-99.323-11.739a40.1 40.1 0 0 0 -9.355 0l-99.322 11.74v-14.195a61.89 61.89 0 0 1 61.82-61.82zm-64.62 92.457 104-12.292a23.84 23.84 0 0 1 5.6 0l104 12.292a24.063 24.063 0 0 1 20.568 18.467l-122.69-14.5a39.845 39.845 0 0 0 -9.357 0l-122.691 14.5a24.062 24.062 0 0 1 20.57-18.467zm-21.2 59.543a24.039 24.039 0 0 1 16-22.624v14.624a111.652 111.652 0 0 0 4.592 31.754 24.035 24.035 0 0 1 -20.592-23.754zm32-8v-20.672l93.2-11.015a23.769 23.769 0 0 1 5.6 0l93.2 11.015v20.672a96 96 0 0 1 -192 0zm-56 136a24.027 24.027 0 0 1 24-24h8v160h-32zm448 136h-208v-64h208z" fill="#000000" data-original="#000000" style="" class=""/></g></svg>
