<?xml version="1.0"?>
<svg xmlns="http://www.w3.org/2000/svg" xmlns:xlink="http://www.w3.org/1999/xlink" xmlns:svgjs="http://svgjs.com/svgjs" version="1.1" width="512" height="512" x="0" y="0" viewBox="0 0 512 512" style="enable-background:new 0 0 512 512" xml:space="preserve" class=""><g><path xmlns="http://www.w3.org/2000/svg" d="m456 139.862v57.931c0 36.565-28.654 66.207-64 66.207h-112c-35.346 0-64-29.642-64-66.207v-57.931c0-63.989 50.144-115.862 112-115.862h16c61.856 0 112 51.873 112 115.862z" fill="#686868" data-original="#d49073" style="" class=""/><path xmlns="http://www.w3.org/2000/svg" d="m312 200h48v120h-48z" fill="#f0c6a4" data-original="#f0c6a4" style="" class=""/><path xmlns="http://www.w3.org/2000/svg" d="m472 312v144h-272v-144a48 48 0 0 1 48-48h64l24 32 24-32h64a48 48 0 0 1 48 48z" fill="#1188a4" data-original="#fda2c6" style="" class=""/><path xmlns="http://www.w3.org/2000/svg" d="m264 128h144a0 0 0 0 1 0 0v48a64 64 0 0 1 -64 64h-16a64 64 0 0 1 -64-64v-48a0 0 0 0 1 0 0z" fill="#f7cca9" data-original="#f7cca9" style="" class=""/><circle xmlns="http://www.w3.org/2000/svg" cx="376" cy="168" fill="#596063" r="8" data-original="#596063" style=""/><path xmlns="http://www.w3.org/2000/svg" d="m336 296-32 24-40-56h48z" fill="#1188a4" data-original="#fd84b3" style="" class=""/><path xmlns="http://www.w3.org/2000/svg" d="m408 264-40 56-32-24 24-32z" fill="#1188a4" data-original="#fd84b3" style="" class=""/><path xmlns="http://www.w3.org/2000/svg" d="m296 408h144a0 0 0 0 1 0 0 32 32 0 0 1 -32 32h-112a0 0 0 0 1 0 0v-32a0 0 0 0 1 0 0z" fill="#d0d2d4" data-original="#d0d2d4" style=""/><rect xmlns="http://www.w3.org/2000/svg" fill="#e9eef2" height="224" rx="32" width="288" x="40" y="216" data-original="#e9eef2" style="" class=""/><path xmlns="http://www.w3.org/2000/svg" d="m240 328a55.967 55.967 0 1 1 -48-55.43 56.008 56.008 0 0 1 48 55.43z" fill="#b1bd70" data-original="#b1bd70" style="" class=""/><circle xmlns="http://www.w3.org/2000/svg" cx="296" cy="168" fill="#596063" r="8" data-original="#596063" style=""/><path xmlns="http://www.w3.org/2000/svg" d="m24 440h464v32h-464z" fill="#c7c7c7" data-original="#ad6643" style="" class=""/><circle xmlns="http://www.w3.org/2000/svg" cx="296" cy="168" r="8" fill="#000000" data-original="#000000" style="" class=""/><circle xmlns="http://www.w3.org/2000/svg" cx="376" cy="168" r="8" fill="#000000" data-original="#000000" style="" class=""/><path xmlns="http://www.w3.org/2000/svg" d="m488 432h-8v-120a56.1 56.1 0 0 0 -44.809-54.875 74.911 74.911 0 0 0 28.809-59.332v-57.931c0-68.298-53.832-123.862-120-123.862h-16c-66.168 0-120 55.564-120 123.862v57.931a77.143 77.143 0 0 0 .678 10.207h-136.678a40.045 40.045 0 0 0 -40 40v160a39.788 39.788 0 0 0 8.022 24h-16.022a8 8 0 0 0 -8 8v32a8 8 0 0 0 8 8h464a8 8 0 0 0 8-8v-32a8 8 0 0 0 -8-8zm-24-120v120h-24.022a39.788 39.788 0 0 0 8.022-24 8 8 0 0 0 -8-8h-104v-94l27.2 20.4a8 8 0 0 0 11.31-1.75l37.607-52.65h11.883a40.045 40.045 0 0 1 40 40zm-181.952-104a55.319 55.319 0 0 1 -10.048-32v-40h128v40a56.063 56.063 0 0 1 -56 56h-11.35a40.051 40.051 0 0 0 -36.65-24zm110.406 64-26.2 36.687-19.054-14.287 16.8-22.4zm-40.454-10.667-16 21.333v-34.666h8a72.383 72.383 0 0 0 8-.455zm-16.8 154.667h95.434a24.042 24.042 0 0 1 -22.634 16h-80.022a39.835 39.835 0 0 0 7.222-16zm-111.2-218.207v-57.931c0-59.475 46.654-107.862 104-107.862h16c57.346 0 104 48.387 104 107.862v57.931c0 32.1-25.121 58.207-56 58.207h-24v-12.128a72.115 72.115 0 0 0 48-67.872v-48a8 8 0 0 0 -8-8h-16v-24a8 8 0 0 0 -16 0v24h-16v-24a8 8 0 0 0 -16 0v24h-16v-24a8 8 0 0 0 -16 0v24h-16v-24a8 8 0 0 0 -16 0v24h-16a8 8 0 0 0 -8 8v48a72.25 72.25 0 0 0 7.513 32h-38.654a60.927 60.927 0 0 1 -.859-10.207zm-176 210.207v-160a24.027 24.027 0 0 1 24-24h224a24.027 24.027 0 0 1 24 24v160a24.027 24.027 0 0 1 -24 24h-224a24.027 24.027 0 0 1 -24-24zm432 56h-448v-16h448z" fill="#000000" data-original="#000000" style="" class=""/><path xmlns="http://www.w3.org/2000/svg" d="m184 264a64 64 0 1 0 64 64 64.072 64.072 0 0 0 -64-64zm-48 64a48.07 48.07 0 0 1 40-47.321v8.7a24 24 0 0 0 8 46.621 8 8 0 1 1 -8 8 8 8 0 0 0 -16 0 24.039 24.039 0 0 0 16 22.624v8.7a48.07 48.07 0 0 1 -40-47.324zm56 47.321v-8.7a24 24 0 0 0 -8-46.621 8 8 0 1 1 8-8 8 8 0 0 0 16 0 24.039 24.039 0 0 0 -16-22.624v-8.7a47.991 47.991 0 0 1 0 94.642z" fill="#000000" data-original="#000000" style="" class=""/></g></svg>
