<?xml version="1.0"?>
<svg xmlns="http://www.w3.org/2000/svg" xmlns:xlink="http://www.w3.org/1999/xlink" xmlns:svgjs="http://svgjs.com/svgjs" version="1.1" width="512" height="512" x="0" y="0" viewBox="0 0 512 512" style="enable-background:new 0 0 512 512" xml:space="preserve" class=""><g><circle xmlns="http://www.w3.org/2000/svg" cx="136" cy="312" fill="#6a7073" r="32" data-original="#6a7073" style="" class=""/><circle xmlns="http://www.w3.org/2000/svg" cx="376" cy="312" fill="#6a7073" r="32" data-original="#6a7073" style="" class=""/><path xmlns="http://www.w3.org/2000/svg" d="m216 248h-192l192 56z" fill="#1188a4" data-original="#b6b9ba" style="" class=""/><path xmlns="http://www.w3.org/2000/svg" d="m296 248h192l-192 56z" fill="#1188a4" data-original="#b6b9ba" style="" class=""/><ellipse xmlns="http://www.w3.org/2000/svg" cx="256" cy="240" fill="#1188a4" rx="72" ry="88" data-original="#dadcde" style="" class=""/><path xmlns="http://www.w3.org/2000/svg" d="m216 216h80v32h-80z" fill="#e9eef2" data-original="#e9eef2" style="" class=""/><path xmlns="http://www.w3.org/2000/svg" d="m192 56a31.9 31.9 0 0 0 -12.3 2.454 56.013 56.013 0 0 0 -103.4 0 32 32 0 1 0 6.9 55.146 56 56 0 0 0 89.6 0 32 32 0 1 0 19.2-57.6z" fill="#686868" data-original="#a3d4f7" style="" class=""/><path xmlns="http://www.w3.org/2000/svg" d="m456 408a31.9 31.9 0 0 0 -12.3 2.454 56.013 56.013 0 0 0 -103.4 0 32 32 0 1 0 6.9 55.147 56 56 0 0 0 89.6 0 32 32 0 1 0 19.2-57.601z" fill="#686868" data-original="#a3d4f7" style="" class=""/><path xmlns="http://www.w3.org/2000/svg" d="m128.015 312a8 8 0 1 0 8.005-8h-.01a8 8 0 0 0 -7.995 8z" fill="#000000" data-original="#000000" style="" class=""/><path xmlns="http://www.w3.org/2000/svg" d="m16.081 246.868a8 8 0 0 0 5.679 8.812l88.456 25.8a39.974 39.974 0 1 0 63.984 18.662l24.894 7.26c14.514 17.644 34.663 28.598 56.906 28.598s42.393-10.954 56.907-28.6l24.894-7.26a40.008 40.008 0 1 0 63.983-18.662l88.456-25.8a8 8 0 0 0 -2.24-15.678h-152a114.851 114.851 0 0 0 -1.491-18.469l91.344-21.749a8 8 0 0 0 -3.706-15.564l-91.347 21.749c-10.564-33.322-36.163-57.821-66.8-61.488v-80.479a8 8 0 0 0 -16 0v80.479c-30.639 3.667-56.238 28.166-66.8 61.488l-91.347-21.749a8 8 0 1 0 -3.706 15.564l91.344 21.749a114.851 114.851 0 0 0 -1.491 18.469h-152a8 8 0 0 0 -7.919 6.868zm143.919 65.132a24 24 0 1 1 -26.852-23.832l18.04 5.262a23.984 23.984 0 0 1 8.812 18.57zm240 0a24 24 0 1 1 -39.188-18.57l18.04-5.262a24.07 24.07 0 0 1 21.148 23.832zm32-56-78.357 22.855-.013-.019c-.018.012-.035.026-.052.038l-27.841 8.12a108.342 108.342 0 0 0 9.146-30.994zm-176-96c35.29 0 64 35.888 64 80s-28.71 80-64 80c-18.651 0-35.46-10.029-47.168-25.994l.115-.4-.509-.148c-10.211-14.176-16.438-32.923-16.438-53.458 0-44.112 28.71-80 64-80zm-78.883 96a108.342 108.342 0 0 0 9.146 30.994l-27.841-8.12c-.017-.012-.034-.026-.052-.038l-.013.019-78.357-22.855z" fill="#000000" data-original="#000000" style="" class=""/><path xmlns="http://www.w3.org/2000/svg" d="m216 256h80a8 8 0 0 0 8-8v-32a8 8 0 0 0 -8-8h-80a8 8 0 0 0 -8 8v32a8 8 0 0 0 8 8zm72-16h-24v-16h24zm-64-16h24v16h-24z" fill="#000000" data-original="#000000" style="" class=""/><path xmlns="http://www.w3.org/2000/svg" d="m376.02 320a8 8 0 0 0 0-16h-.01a8 8 0 0 0 .01 16z" fill="#000000" data-original="#000000" style="" class=""/><path xmlns="http://www.w3.org/2000/svg" d="m24 88a40.026 40.026 0 0 0 57.5 35.985 64.028 64.028 0 0 0 93 0 40 40 0 1 0 9.4-75.165 64.022 64.022 0 0 0 -111.808 0 40.035 40.035 0 0 0 -48.092 39.18zm40-24a23.833 23.833 0 0 1 9.223 1.838 8 8 0 0 0 10.462-4.3 48.014 48.014 0 0 1 88.63 0 8 8 0 0 0 10.462 4.3 24 24 0 1 1 -5.172 41.366 8 8 0 0 0 -11.2 1.592 48 48 0 0 1 -76.808 0 8 8 0 0 0 -11.197-1.596 23.781 23.781 0 0 1 -14.4 4.8 24 24 0 0 1 0-48z" fill="#000000" data-original="#000000" style="" class=""/><path xmlns="http://www.w3.org/2000/svg" d="m456 400a40.018 40.018 0 0 0 -8.1.82 64.022 64.022 0 0 0 -111.808 0 40 40 0 1 0 9.4 75.165 64.028 64.028 0 0 0 93 0 40.006 40.006 0 1 0 17.508-75.985zm0 64a23.781 23.781 0 0 1 -14.395-4.8 8 8 0 0 0 -11.2 1.592 48 48 0 0 1 -76.808 0 8 8 0 0 0 -11.2-1.592 23.781 23.781 0 0 1 -14.397 4.8 24 24 0 1 1 9.223-46.162 8 8 0 0 0 10.462-4.3 48.014 48.014 0 0 1 88.63 0 8 8 0 0 0 10.462 4.3 24 24 0 1 1 9.223 46.162z" fill="#000000" data-original="#000000" style="" class=""/></g></svg>
