<?xml version="1.0"?>
<svg xmlns="http://www.w3.org/2000/svg" xmlns:xlink="http://www.w3.org/1999/xlink" xmlns:svgjs="http://svgjs.com/svgjs" version="1.1" width="512" height="512" x="0" y="0" viewBox="0 0 512 512" style="enable-background:new 0 0 512 512" xml:space="preserve" class=""><g><path xmlns="http://www.w3.org/2000/svg" d="m392 424v-80a32 32 0 0 0 -32-32h-256a32 32 0 0 0 -32 32v144h368v-64z" fill="#e9eef2" data-original="#e9eef2" style="" class=""/><path xmlns="http://www.w3.org/2000/svg" d="m208 304h48v40h-48z" fill="#f7cca9" data-original="#f7cca9" style="" class=""/><path xmlns="http://www.w3.org/2000/svg" d="m280 392h64v32h-64z" fill="#d0d2d4" data-original="#d0d2d4" style="" class=""/><circle xmlns="http://www.w3.org/2000/svg" cx="336" cy="216" fill="#f0c6a4" r="32" data-original="#f0c6a4" style="" class=""/><circle xmlns="http://www.w3.org/2000/svg" cx="128" cy="216" fill="#f0c6a4" r="32" data-original="#f0c6a4" style="" class=""/><rect xmlns="http://www.w3.org/2000/svg" fill="#f7cca9" height="240" rx="104" width="208" x="128" y="72" data-original="#f7cca9" style="" class=""/><path xmlns="http://www.w3.org/2000/svg" d="m304 48a39.937 39.937 0 0 0 -32 16 40 40 0 0 0 -80 0 40 40 0 0 0 -72 24v80h224v-80a40 40 0 0 0 -40-40z" fill="#e9eef2" data-original="#e9eef2" style="" class=""/><path xmlns="http://www.w3.org/2000/svg" d="m120 152h224v32h-224z" fill="#d0d2d4" data-original="#d0d2d4" style="" class=""/><path xmlns="http://www.w3.org/2000/svg" d="m392 296h32v112h-32z" fill="#1188a4" data-original="#6a7073" style="" class=""/><path xmlns="http://www.w3.org/2000/svg" d="m392 360h29.525a18.475 18.475 0 0 1 18.475 18.475v27.05a18.475 18.475 0 0 1 -18.475 18.475h-29.525a0 0 0 0 1 0 0v-64a0 0 0 0 1 0 0z" fill="#f7cca9" data-original="#f7cca9" style="" class=""/><path xmlns="http://www.w3.org/2000/svg" d="m392 152a48 48 0 0 1 48 48v120a0 0 0 0 1 0 0h-48a0 0 0 0 1 0 0v-168a0 0 0 0 1 0 0z" fill="#e9eef2" data-original="#e9eef2" style="" class=""/><circle xmlns="http://www.w3.org/2000/svg" cx="272" cy="216" r="8" fill="#000000" data-original="#000000" style="" class=""/><circle xmlns="http://www.w3.org/2000/svg" cx="192" cy="216" r="8" fill="#000000" data-original="#000000" style="" class=""/><path xmlns="http://www.w3.org/2000/svg" d="m224 240h16a8 8 0 0 0 0-16h-8v-8a8 8 0 0 0 -16 0v16a8 8 0 0 0 8 8z" fill="#000000" data-original="#000000" style="" class=""/><path xmlns="http://www.w3.org/2000/svg" d="m275.077 240.615a8 8 0 0 0 -10.462 4.308c-.079.191-8.23 19.077-32.615 19.077-23.956 0-32.248-18.238-32.636-19.126a8 8 0 0 0 -14.749 6.2c.492 1.184 12.453 28.926 47.385 28.926s46.893-27.742 47.385-28.923a8 8 0 0 0 -4.308-10.462z" fill="#000000" data-original="#000000" style="" class=""/><path xmlns="http://www.w3.org/2000/svg" d="m344 448h-64a8 8 0 0 0 0 16h64a8 8 0 0 0 0-16z" fill="#000000" data-original="#000000" style="" class=""/><path xmlns="http://www.w3.org/2000/svg" d="m344 384h-64a8 8 0 0 0 -8 8v32a8 8 0 0 0 8 8h64a8 8 0 0 0 8-8v-32a8 8 0 0 0 -8-8zm-8 32h-48v-16h48z" fill="#000000" data-original="#000000" style="" class=""/><circle xmlns="http://www.w3.org/2000/svg" cx="176" cy="456" r="8" fill="#000000" data-original="#000000" style="" class=""/><circle xmlns="http://www.w3.org/2000/svg" cx="176" cy="424" r="8" fill="#000000" data-original="#000000" style="" class=""/><path xmlns="http://www.w3.org/2000/svg" d="m440 328a8 8 0 0 0 8-8v-120a56.063 56.063 0 0 0 -56-56 8 8 0 0 0 -8 8v160.022a39.788 39.788 0 0 0 -24-8.022h-70.369a112.769 112.769 0 0 0 43.548-48h2.821a39.994 39.994 0 0 0 16-76.65v-91.35a48.051 48.051 0 0 0 -74.715-39.923 48 48 0 0 0 -90.57 0 48.051 48.051 0 0 0 -74.715 39.923v91.35a39.994 39.994 0 0 0 16 76.65h2.821a112.769 112.769 0 0 0 43.548 48h-70.369a40.045 40.045 0 0 0 -40 40v144a8 8 0 0 0 8 8h368a8 8 0 0 0 8-8v-80h-.12c.076-.815.12-1.64.12-2.475v-27.05a26.512 26.512 0 0 0 -16-24.31v-26.165zm-40-167.2a40.071 40.071 0 0 1 32 39.2v112h-32zm21.524 207.2a10.487 10.487 0 0 1 10.476 10.475v27.05a10.487 10.487 0 0 1 -10.476 10.475h-21.524v-48zm-173.524-32h-32v-16h32zm88-176v16h-208v-16zm24 56a24.035 24.035 0 0 1 -20.592 23.754 111.652 111.652 0 0 0 4.592-31.754v-14.624a24.039 24.039 0 0 1 16 22.624zm-200-160a31.762 31.762 0 0 1 25.6 12.805 8 8 0 0 0 14.4-4.805 32 32 0 0 1 64 0 8 8 0 0 0 14.4 4.805 32 32 0 0 1 57.6 19.195v56h-56v-32a8 8 0 0 0 -16 0v32h-64v-32a8 8 0 0 0 -16 0v32h-56v-56a32.036 32.036 0 0 1 32-32zm-56 160a24.039 24.039 0 0 1 16-22.624v14.624a111.652 111.652 0 0 0 4.592 31.754 24.035 24.035 0 0 1 -20.592-23.754zm32-8v-16h192v16a96 96 0 0 1 -192 0zm-56 136a24.027 24.027 0 0 1 24-24h96v24a8 8 0 0 0 8 8h14.112l-81.69 40.845a8 8 0 0 0 -4.422 7.155v80h-56zm304 136h-232v-75.056l107.578-53.789v-.006a7.992 7.992 0 0 0 4.422-7.149v-24h96a24.027 24.027 0 0 1 24 24zm16 0v-48h21.524a26.334 26.334 0 0 0 10.476-2.165v50.165zm16-128h-16v-24h16z" fill="#000000" data-original="#000000" style="" class=""/></g></svg>
