<?xml version="1.0"?>
<svg xmlns="http://www.w3.org/2000/svg" xmlns:xlink="http://www.w3.org/1999/xlink" xmlns:svgjs="http://svgjs.com/svgjs" version="1.1" width="512" height="512" x="0" y="0" viewBox="0 0 512 512" style="enable-background:new 0 0 512 512" xml:space="preserve" class=""><g><path xmlns="http://www.w3.org/2000/svg" d="m72 256h144a32 32 0 0 1 32 32v184a0 0 0 0 1 0 0h-192a16 16 0 0 1 -16-16v-168a32 32 0 0 1 32-32z" fill="#1188a4" data-original="#2d85cc" style="" class=""/><path xmlns="http://www.w3.org/2000/svg" d="m120 256 24 48 24-48z" fill="#686868" data-original="#960e35" style="" class=""/><path xmlns="http://www.w3.org/2000/svg" d="m248 144h-208a16 16 0 0 0 -16 16v32a16 16 0 0 0 16 16h208a16 16 0 0 0 16-16v-32a16 16 0 0 0 -16-16z" fill="#686868" data-original="#eb423f" style="" class=""/><rect xmlns="http://www.w3.org/2000/svg" fill="#dadcde" height="176" rx="18" width="256" x="232" y="248" data-original="#dadcde" style=""/><path xmlns="http://www.w3.org/2000/svg" d="m488 391.09v14.91a18 18 0 0 1 -18 18h-220a18 18 0 0 1 -18-18v-14z" fill="#9aa3a8" data-original="#9aa3a8" style=""/><path xmlns="http://www.w3.org/2000/svg" d="m416 472h-96l8-128h80z" fill="#757c80" data-original="#757c80" style=""/><path xmlns="http://www.w3.org/2000/svg" d="m216 424h32a16 16 0 0 1 16 16v16a16 16 0 0 1 -16 16h-32a0 0 0 0 1 0 0v-48a0 0 0 0 1 0 0z" fill="#f7cca9" data-original="#f7cca9" style="" class=""/><rect xmlns="http://www.w3.org/2000/svg" fill="#f7cca9" height="176" rx="72" width="144" x="72" y="80" data-original="#f7cca9" style="" class=""/><g xmlns="http://www.w3.org/2000/svg" fill="#452d23"><path d="m215.99 151.51a65.675 65.675 0 0 1 -7.99.49 64 64 0 0 1 -64-64 65.675 65.675 0 0 1 .49-7.99 71.977 71.977 0 0 1 71.5 71.5z" fill="#452d23" data-original="#452d23" style=""/><circle cx="184" cy="176" r="8" fill="#452d23" data-original="#452d23" style=""/><circle cx="104" cy="176" r="8" fill="#452d23" data-original="#452d23" style=""/><path d="m152 200h-16a8 8 0 0 1 -8-8v-16a8 8 0 0 1 16 0v8h8a8 8 0 0 1 0 16z" fill="#452d23" data-original="#452d23" style=""/><path d="m194.91 101.09-2.91 2.91s-48 48-120 48a71.989 71.989 0 0 1 120.86-52.87c.7.64 1.38 1.29 2.05 1.96z" fill="#452d23" data-original="#452d23" style=""/><path d="m183.155 211.578h-.006a7.993 7.993 0 1 0 -14.3-7.15h-.006l.053-.1c-.257.476-6.51 11.682-24.9 11.682s-24.641-11.206-24.9-11.682l.053.1h-.006a7.993 7.993 0 1 0 -14.3 7.15h-.006c.016.032.052.1.1.187l.047.088c1.349 2.491 11.839 20.147 39.016 20.147s37.667-17.656 39.011-20.147l.047-.088c.042-.086.081-.155.097-.187z" fill="#452d23" data-original="#452d23" style=""/></g><circle xmlns="http://www.w3.org/2000/svg" cx="184" cy="176" r="8" fill="#000000" data-original="#000000" style="" class=""/><circle xmlns="http://www.w3.org/2000/svg" cx="104" cy="176" r="8" fill="#000000" data-original="#000000" style="" class=""/><path xmlns="http://www.w3.org/2000/svg" d="m152 184h-8v-8a8 8 0 0 0 -16 0v16a8 8 0 0 0 8 8h16a8 8 0 0 0 0-16z" fill="#000000" data-original="#000000" style="" class=""/><path xmlns="http://www.w3.org/2000/svg" d="m36.566 215.75a111.628 111.628 0 0 0 18.306 36.111 40.046 40.046 0 0 0 -22.872 36.139v168a24.028 24.028 0 0 0 24 24h192a24.027 24.027 0 0 0 24-24v-16a23.889 23.889 0 0 0 -1.376-8h43.86l-2.468 39.5a8 8 0 0 0 7.984 8.5h96a8 8 0 0 0 7.984-8.5l-2.468-39.5h48.484a26.029 26.029 0 0 0 26-26v-140a26.029 26.029 0 0 0 -26-26h-220a25.97 25.97 0 0 0 -20.7 10.286 40.068 40.068 0 0 0 -13.3-2.286h-24.45a82.333 82.333 0 0 0 25.437-32h31.013a24.028 24.028 0 0 0 24-24v-32a24.039 24.039 0 0 0 -16.206-22.694 111.994 111.994 0 0 0 -223.588 0 24.039 24.039 0 0 0 -16.206 22.694v32a24.034 24.034 0 0 0 20.566 23.75zm16.892.25h17.555a82.333 82.333 0 0 0 25.437 32h-24.028a95.731 95.731 0 0 1 -18.964-32zm275.058 248 7-112h64.968l7 112zm151.484-58a10.011 10.011 0 0 1 -10 10h-49.484l-1-16h60.484zm-240-140a10.011 10.011 0 0 1 10-10h220a10.011 10.011 0 0 1 10 10v118h-61.484l-2.532-40.5a8 8 0 0 0 -7.984-7.5h-80a8 8 0 0 0 -7.984 7.5l-2.532 40.5h-77.484zm0 134h76.484l-1 16h-65.484a10.011 10.011 0 0 1 -10-10zm8 32a8.009 8.009 0 0 1 8 8v16a8.009 8.009 0 0 1 -8 8h-24v-32zm-32-168a24.086 24.086 0 0 1 8.016 1.381c0 .207-.016.411-.016.619v140a25.843 25.843 0 0 0 2 10h-130v-56a8 8 0 0 0 -16 0v64a8 8 0 0 0 8 8h120v32h-152a8.009 8.009 0 0 1 -8-8v-168a24.04 24.04 0 0 1 18.305-23.312 112.423 112.423 0 0 0 26 18.691 8 8 0 1 0 7.395-14.189 96.56 96.56 0 0 1 -8.792-5.19h24.148l21.789 43.578a8 8 0 0 0 14.31 0l21.789-43.578zm-83.056 0h22.112l-11.056 22.111zm75.056-81a65.078 65.078 0 0 1 -18.8 45.809 62.827 62.827 0 0 1 -90.4 0 65.078 65.078 0 0 1 -18.8-45.809v-31.193c31.457-1.465 58.014-11.346 77.9-21.966 7.143 7.344 23.015 19.758 50.1 21.853zm-127.451-47.245a63.932 63.932 0 0 1 102.5-42.409c-11.082 9.654-49.358 39.441-102.5 42.409zm113.883-31.087a63.673 63.673 0 0 1 13 30.906c-17.88-1.781-29.162-8.889-35.224-14.152a180.9 180.9 0 0 0 22.224-16.754zm61.568 55.332v32a8.009 8.009 0 0 1 -8 8h-25.8a81.483 81.483 0 0 0 1.8-17v-31h24a8.009 8.009 0 0 1 8 8zm-112-112a96.127 96.127 0 0 1 95.664 88h-16.064a80 80 0 0 0 -159.2 0h-16.064a96.127 96.127 0 0 1 95.664-88zm-112 112a8.009 8.009 0 0 1 8-8h24v31a81.483 81.483 0 0 0 1.805 17h-25.805a8.009 8.009 0 0 1 -8-8z" fill="#000000" data-original="#000000" style="" class=""/><path xmlns="http://www.w3.org/2000/svg" d="m119.1 204.318.053.1h-.006a7.993 7.993 0 1 0 -14.3 7.15h-.006c.016.032.052.1.1.187l.047.088c1.345 2.501 11.835 20.157 39.012 20.157s37.667-17.656 39.011-20.147l.047-.088c.045-.086.081-.155.1-.187h-.006a7.993 7.993 0 1 0 -14.3-7.15h-.006l.053-.1c-.257.476-6.51 11.682-24.9 11.682s-24.64-11.216-24.899-11.692z" fill="#000000" data-original="#000000" style="" class=""/></g></svg>
