<?xml version="1.0"?>
<svg xmlns="http://www.w3.org/2000/svg" xmlns:xlink="http://www.w3.org/1999/xlink" xmlns:svgjs="http://svgjs.com/svgjs" version="1.1" width="512" height="512" x="0" y="0" viewBox="0 0 512 512" style="enable-background:new 0 0 512 512" xml:space="preserve" class=""><g><rect xmlns="http://www.w3.org/2000/svg" x="240" y="200" width="64" height="48" style="" fill="#686868" data-original="#95573a" class=""/><path xmlns="http://www.w3.org/2000/svg" d="M216,24a95.644,95.644,0,0,0-40,8.71A96.036,96.036,0,0,0,40,120v96a64,64,0,0,0,64,64h0V210.53a96.262,96.262,0,0,0,72-3.24A96.008,96.008,0,1,0,216,24Z" style="" fill="#686868" data-original="#95573a" class=""/><path xmlns="http://www.w3.org/2000/svg" d="M312,120a96.036,96.036,0,0,1-136,87.29V32.71A96.036,96.036,0,0,1,312,120Z" style="" fill="#686868" data-original="#95573a" class=""/><circle xmlns="http://www.w3.org/2000/svg" cx="280" cy="184" r="32" style="" fill="#f0c6a4" data-original="#f0c6a4"/><path xmlns="http://www.w3.org/2000/svg" d="M280,152v24a104,104,0,0,1-176,75.04V147.92C145.12,137.73,176,88,176,88S224,152,280,152Z" style="" fill="#f7cca9" data-original="#f7cca9" class=""/><path xmlns="http://www.w3.org/2000/svg" d="M56,280H296a32,32,0,0,1,32,32V488a0,0,0,0,1,0,0H24a0,0,0,0,1,0,0V312A32,32,0,0,1,56,280Z" style="" fill="#1188a4" data-original="#b077c7" class=""/><polygon xmlns="http://www.w3.org/2000/svg" points="248 280 176 360 104 280 248 280" style="" fill="#f7cca9" data-original="#f7cca9" class=""/><rect xmlns="http://www.w3.org/2000/svg" x="216" y="248" width="272" height="208" rx="21.189" ry="21.189" style="" fill="#c3c6c7" data-original="#e9eef2" class=""/><path xmlns="http://www.w3.org/2000/svg" d="M488,416v18.81A21.194,21.194,0,0,1,466.81,456H237.19A21.194,21.194,0,0,1,216,434.81V416Z" style="" fill="#c3c6c7" data-original="#c3c6c7" class=""/><polygon xmlns="http://www.w3.org/2000/svg" points="384 488 304 488 320 360 400 360 384 488" style="" fill="#c3c6c7" data-original="#b6b9ba" class=""/><path xmlns="http://www.w3.org/2000/svg" d="M72,424h32a0,0,0,0,1,0,0v64a0,0,0,0,1,0,0H72a16,16,0,0,1-16-16V440A16,16,0,0,1,72,424Z" style="" fill="#f7cca9" data-original="#f7cca9" class=""/><circle xmlns="http://www.w3.org/2000/svg" cx="208" cy="184" r="8" fill="#000000" data-original="#000000" style="" class=""/><circle xmlns="http://www.w3.org/2000/svg" cx="136" cy="184" r="8" fill="#000000" data-original="#000000" style="" class=""/><path xmlns="http://www.w3.org/2000/svg" d="M168,208h16a8,8,0,0,0,0-16h-8v-8a8,8,0,0,0-16,0v16A8,8,0,0,0,168,208Z" fill="#000000" data-original="#000000" style="" class=""/><path xmlns="http://www.w3.org/2000/svg" d="M219.077,208.615a8,8,0,0,0-10.462,4.308C208.536,213.114,200.385,232,176,232c-23.956,0-32.248-18.238-32.636-19.126a8,8,0,0,0-14.749,6.2C129.107,220.258,141.068,248,176,248s46.893-27.742,47.385-28.923A8,8,0,0,0,219.077,208.615Z" fill="#000000" data-original="#000000" style="" class=""/><path xmlns="http://www.w3.org/2000/svg" d="M466.811,240H312V208h-.022a39.914,39.914,0,0,0,.027-47.965A104.044,104.044,0,0,0,176,23.977,104.046,104.046,0,0,0,32,120v96a71.883,71.883,0,0,0,26.815,56H56a40.045,40.045,0,0,0-40,40V488a8,8,0,0,0,8,8H424a8,8,0,0,0,0-16H393.062l2-16h71.749A29.223,29.223,0,0,0,496,434.811V269.189A29.223,29.223,0,0,0,466.811,240Zm-198.9,0a111.785,111.785,0,0,0,9.255-16H280a39.759,39.759,0,0,0,16-3.35V240ZM224,424h79.938l-3,24H237.189A13.2,13.2,0,0,1,224,434.811Zm-48-75.959L121.963,288H208v24.486Zm32.129-81.549A96.134,96.134,0,0,1,112,247.55V153.907c30.122-10.158,53.81-38.06,64.555-52.63,14.879,17.094,51.817,54.158,95.445,58.337V176a96.122,96.122,0,0,1-22.15,61.344c-.748.9-1.53,1.779-2.315,2.656H237.189A29.226,29.226,0,0,0,208.129,266.492ZM288,176V161.376a24,24,0,0,1-4.63,46.383A112,112,0,0,0,288,176Zm16-56a87.477,87.477,0,0,1-4.853,28.89A39.758,39.758,0,0,0,280,144c-45.9,0-87.464-48.23-96-58.776V38a88.046,88.046,0,0,1,120,82ZM48,216V120A88.044,88.044,0,0,1,168,38V85.62c-5.879,8.773-32.672,46.295-65.924,54.534A8,8,0,0,0,96,147.92V271.431A56.089,56.089,0,0,1,48,216Zm64,51.922q3.075,2.148,6.273,4.078H112ZM72,480a8.009,8.009,0,0,1-8-8V440a8.009,8.009,0,0,1,8-8H96v48Zm40-17.963L131.648,480H112ZM155.361,480,112,440.358V424a8,8,0,0,0-8-8H85.357L61.4,394.1l-.006.006a7.991,7.991,0,1,0-10.784,11.8l-.006.006L63.4,417.6A24.036,24.036,0,0,0,48,440v32a23.889,23.889,0,0,0,1.376,8H32V312a24.027,24.027,0,0,1,24-24h44.437L168,363.07V480ZM184,363.07,208,336.4v98.408A29.223,29.223,0,0,0,237.189,464h61.749l-2,16H184ZM305.938,408H224V269.189A13.2,13.2,0,0,1,237.189,256H466.811A13.2,13.2,0,0,1,480,269.189V408H402.062l5.876-47.008A8,8,0,0,0,400,352H320a8,8,0,0,0-7.938,7.008Zm21.124-40h63.876l-14,112H313.062Zm139.749,80H397.062l3-24H480v10.811A13.2,13.2,0,0,1,466.811,448Z" fill="#000000" data-original="#000000" style="" class=""/></g></svg>
