<?xml version="1.0"?>
<svg xmlns="http://www.w3.org/2000/svg" xmlns:xlink="http://www.w3.org/1999/xlink" xmlns:svgjs="http://svgjs.com/svgjs" version="1.1" width="512" height="512" x="0" y="0" viewBox="0 0 512 512" style="enable-background:new 0 0 512 512" xml:space="preserve" class=""><g><path xmlns="http://www.w3.org/2000/svg" d="m56 264h240a32 32 0 0 1 32 32v192a0 0 0 0 1 0 0h-304a0 0 0 0 1 0 0v-192a32 32 0 0 1 32-32z" fill="#1188a4" data-original="#2d85cc" style="" class=""/><path xmlns="http://www.w3.org/2000/svg" d="m328 296v192h-152v-224h120a32 32 0 0 1 32 32z" fill="#1188a4" data-original="#2d85cc" style="" class=""/><rect xmlns="http://www.w3.org/2000/svg" fill="#4f5659" height="88" rx="24" width="48" x="264" y="48" data-original="#4f5659" style="" class=""/><circle xmlns="http://www.w3.org/2000/svg" cx="280" cy="168" fill="#f0c6a4" r="32" data-original="#f0c6a4" style=""/><circle xmlns="http://www.w3.org/2000/svg" cx="72" cy="168" fill="#f0c6a4" r="32" data-original="#f0c6a4" style=""/><rect xmlns="http://www.w3.org/2000/svg" fill="#f7cca9" height="240" rx="104" width="208" x="72" y="24" data-original="#f7cca9" style="" class=""/><path xmlns="http://www.w3.org/2000/svg" d="m304 344h184v144h-184z" fill="#e9eef2" data-original="#e9eef2" style="" class=""/><path xmlns="http://www.w3.org/2000/svg" d="m480.33 278.04-34.79 11.62h-.01l-21.45 7.16-.01.01-16.48 5.5-21.46 7.16-16.48 5.5-21.46 7.17-16.48 5.5-21.46 7.16v.01l-4.45 1.48-10.13-30.35 34.78-11.61.01-.01 21.47-7.16v-.01l16.48-5.5 21.46-7.16 16.48-5.5 21.46-7.17 16.48-5.5 21.45-7.16.01-.01 4.45-1.48z" fill="#1188a4" data-original="#7e8589" style="" class=""/><path xmlns="http://www.w3.org/2000/svg" d="m304 344h184v32h-184z" fill="#1188a4" data-original="#7e8589" style="" class=""/><path xmlns="http://www.w3.org/2000/svg" d="m344 440h104v48h-104z" fill="#4f5659" data-original="#4f5659" style="" class=""/><path xmlns="http://www.w3.org/2000/svg" d="m40 72v39.46c0 13.455 11.011 24.791 24.464 24.54a24 24 0 0 0 23.536-24 24 24 0 0 1 24-24h136a32 32 0 0 0 32-32 32 32 0 0 0 -32-32h-160a48 48 0 0 0 -48 48z" fill="#4f5659" data-original="#4f5659" style="" class=""/><path xmlns="http://www.w3.org/2000/svg" d="m136 312 40 96 40-96v-48h-80z" fill="#e9eef2" data-original="#e9eef2" style="" class=""/><path xmlns="http://www.w3.org/2000/svg" d="m176 264 56 64v-64z" fill="#dadcde" data-original="#dadcde" style=""/><path xmlns="http://www.w3.org/2000/svg" d="m176 264-56 64v-64z" fill="#dadcde" data-original="#dadcde" style=""/><circle xmlns="http://www.w3.org/2000/svg" cx="136" cy="160" r="8" fill="#000000" data-original="#000000" style="" class=""/><path xmlns="http://www.w3.org/2000/svg" d="m488 336h-156l150.87-50.37a8 8 0 0 0 5.055-10.121l-10.134-30.354a8 8 0 0 0 -10.121-5.054l-133.331 44.512a40.066 40.066 0 0 0 -38.339-28.613h-62.369a112.769 112.769 0 0 0 43.548-48h2.821a39.977 39.977 0 0 0 26.509-69.921 31.974 31.974 0 0 0 13.491-26.079v-40a32.036 32.036 0 0 0 -32-32 32.366 32.366 0 0 0 -3.272.172 40.056 40.056 0 0 0 -36.728-24.172h-160a56.063 56.063 0 0 0 -56 56v39.46a32.852 32.852 0 0 0 13.583 26.54 39.978 39.978 0 0 0 26.417 70h2.821a112.769 112.769 0 0 0 43.548 48h-62.369a40.045 40.045 0 0 0 -40 40v192a8 8 0 0 0 8 8h464a8 8 0 0 0 8-8v-144a8 8 0 0 0 -8-8zm-8 32h-20.686l16-16h4.686zm-168 0v-16h20.686l-16 16zm43.314-16h17.372l-16 16h-17.372zm40 0h17.372l-16 16h-17.372zm40 0h17.372l-16 16h-17.372zm-44.129-52.629-16.479 5.5 10.109-20.244 16.479-5.5zm31.572-27.409 16.478-5.5-10.109 20.238-16.479 5.5zm-69.514 40.076-16.478 5.5 10.109-20.238 16.479-5.5zm-27.832-7.576-10.111 20.243-4.446 1.484-5.066-15.176zm144.8-31.475-19.621 6.551 10.11-20.238 4.446-1.484zm-151.059 16.7-26.016 8.686a8 8 0 0 0 -5.055 10.121l10.046 30.091a7.961 7.961 0 0 0 -2.127 5.415v136h-112v-70.4l35.087-84.21 6.892 7.877a8 8 0 0 0 14.021-5.267v-56h56a24.04 24.04 0 0 1 23.151 17.684zm-191.152-17.687h30.37l-30.37 34.708zm65.63 0h30.37v34.708zm-17.63 4.148 31.345 35.823-31.345 75.229-31.345-75.229zm78.624-132.148a24.039 24.039 0 0 0 -22.624-16h-32a24.028 24.028 0 0 0 -24 24 24.028 24.028 0 0 0 -24-24h-32a24.039 24.039 0 0 0 -22.624 16h-17.376v-4.345a32.132 32.132 0 0 0 16-27.655 16.019 16.019 0 0 1 16-16h136a39.748 39.748 0 0 0 17.088-3.843 95.011 95.011 0 0 1 6.912 35.843v16zm-14.624 8v16a8.009 8.009 0 0 1 -8 8h-32a8.009 8.009 0 0 1 -8-8v-16a8.009 8.009 0 0 1 8-8h32a8.009 8.009 0 0 1 8 8zm-80 0v16a8.009 8.009 0 0 1 -8 8h-32a8.009 8.009 0 0 1 -8-8v-16a8.009 8.009 0 0 1 8-8h32a8.009 8.009 0 0 1 8 8zm123.408 39.754a111.652 111.652 0 0 0 4.592-31.754v-14.624a24 24 0 0 1 -4.592 46.378zm20.592-119.754v40a16.019 16.019 0 0 1 -16 16 112.485 112.485 0 0 0 -9.786-45.832 39.822 39.822 0 0 0 9.786-26.168 16.019 16.019 0 0 1 16 16zm-256 0a40.045 40.045 0 0 1 40-40h160a24 24 0 0 1 0 48h-136a32.036 32.036 0 0 0 -32 32 16.075 16.075 0 0 1 -15.688 16 15.565 15.565 0 0 1 -11.257-4.573 16.88 16.88 0 0 1 -5.055-11.967zm0 96a24.039 24.039 0 0 1 16-22.624v14.624a111.652 111.652 0 0 0 4.592 31.754 24.035 24.035 0 0 1 -20.592-23.754zm32-8h16v8a24.028 24.028 0 0 0 24 24h32a24.028 24.028 0 0 0 24-24 24.028 24.028 0 0 0 24 24h32a24.028 24.028 0 0 0 24-24v-8h16a96 96 0 0 1 -192 0zm-48 136a24.028 24.028 0 0 1 24-24h56v56a8 8 0 0 0 14.021 5.268l6.892-7.877 35.087 84.209v70.4h-136zm408 184h-88v-32h88zm16 0v-40a8 8 0 0 0 -8-8h-104a8 8 0 0 0 -8 8v40h-24v-96h168v96z" fill="#000000" data-original="#000000" style="" class=""/><path xmlns="http://www.w3.org/2000/svg" d="m416 400h-72a8 8 0 0 0 0 16h72a8 8 0 0 0 0-16z" fill="#000000" data-original="#000000" style="" class=""/><circle xmlns="http://www.w3.org/2000/svg" cx="448" cy="408" r="8" fill="#000000" data-original="#000000" style="" class=""/><circle xmlns="http://www.w3.org/2000/svg" cx="216" cy="160" r="8" fill="#000000" data-original="#000000" style="" class=""/><path xmlns="http://www.w3.org/2000/svg" d="m216 200a7.987 7.987 0 0 0 -6.778 3.764h-.006l.075-.117c-.342.5-8.644 12.357-33.291 12.357s-32.949-11.853-33.291-12.357l.075.117h-.006a7.993 7.993 0 1 0 -13.556 8.472h-.006c.577.923 3.829 5.767 11.222 10.5 6.6 4.226 18.13 9.262 35.562 9.262s28.961-5.036 35.562-9.262c7.393-4.731 10.645-9.575 11.222-10.5h-.006a7.989 7.989 0 0 0 -6.778-12.236z" fill="#000000" data-original="#000000" style="" class=""/></g></svg>
