<svg width="105" height="110" xmlns="http://www.w3.org/2000/svg">

 <g>
  <rect fill="none" id="canvas_background" height="112" width="107" y="0" x="0"/>
 </g>
 <g>
  <g id="svg_1">
   <path id="svg_2" d="m26.60022,13.214l15.76,0l0,58.062c0,7.245 -5.895,13.14 -13.14,13.14s-13.139,-5.895 -13.139,-13.14s5.894,-13.139 13.139,-13.139l0,-12c-13.862,0 -25.139,11.277 -25.139,25.139s11.277,25.14 25.139,25.14s25.14,-11.278 25.14,-25.14l0,-70.062l0,0"/>
   <path id="svg_3" d="m96.32422,75.831c-2.605,3.162 -6.072,5.585 -10.035,6.918l2.022,4.441c0.75,1.648 0.814,3.49 0.179,5.186s-1.892,3.043 -3.54,3.794c-2.486,1.132 -5.392,0.669 -7.404,-1.181l-8.122,8.834c3.544,3.259 8.092,4.963 12.706,4.963c2.634,0 5.291,-0.556 7.792,-1.695c9.424,-4.291 13.6,-15.449 9.309,-24.873l-2.907,-6.387z"/>
   <path id="svg_4" d="m99.36122,61.801c0,-1.848 -0.253,-3.669 -0.742,-5.418c-0.815,-2.915 -2.285,-5.629 -4.329,-7.929l-3.685,-4.146l-8.291,7.369l3.684,4.145c0.366,0.412 0.691,0.854 0.973,1.319c0.422,0.698 0.747,1.449 0.966,2.233c0.219,0.784 0.332,1.6 0.332,2.428c0,2.173 -0.773,4.169 -2.06,5.727c-1.654,2.003 -4.155,3.282 -6.949,3.282s-5.295,-1.279 -6.949,-3.282c-1.286,-1.558 -2.06,-3.554 -2.06,-5.727l0,-60.134l-11.092,0l0,60.133c0,11.084 9.017,20.101 20.101,20.101s20.101,-9.017 20.101,-20.101z"/>
   <g id="svg_5">
    <path id="svg_6" d="m59.10622,83.024c-1.246,0 -2.469,0.505 -3.345,1.38c-0.884,0.884 -1.388,2.106 -1.388,3.352c0,1.246 0.505,2.461 1.388,3.345c0.876,0.883 2.098,1.388 3.345,1.388s2.469,-0.505 3.352,-1.388c0.875,-0.884 1.38,-2.098 1.38,-3.345c0,-1.246 -0.505,-2.469 -1.38,-3.352c-0.883,-0.875 -2.105,-1.38 -3.352,-1.38z"/>
   </g>
   <g id="svg_7">
    <path id="svg_8" d="m73.49322,91.102c0.884,-0.884 1.389,-2.098 1.389,-3.345c0,-1.246 -0.505,-2.469 -1.389,-3.352c-0.875,-0.876 -2.097,-1.38 -3.344,-1.38s-2.461,0.505 -3.345,1.38c-0.884,0.884 -1.388,2.106 -1.388,3.352c0,1.246 0.505,2.469 1.388,3.345c0.884,0.883 2.098,1.388 3.345,1.388s2.469,-0.505 3.344,-1.388z"/>
   </g>
  </g>

 </g>
</svg>