<?xml version="1.0"?>
<svg xmlns="http://www.w3.org/2000/svg" xmlns:xlink="http://www.w3.org/1999/xlink" xmlns:svgjs="http://svgjs.com/svgjs" version="1.1" width="512" height="512" x="0" y="0" viewBox="0 0 512 512" style="enable-background:new 0 0 512 512" xml:space="preserve" class=""><g><path xmlns="http://www.w3.org/2000/svg" d="m264 112h48v72h-48z" fill="#686868" data-original="#7a4830" style="" class=""/><circle xmlns="http://www.w3.org/2000/svg" cx="280" cy="184" fill="#f0c6a4" r="32" data-original="#f0c6a4" style="" class=""/><circle xmlns="http://www.w3.org/2000/svg" cx="72" cy="184" fill="#f0c6a4" r="32" data-original="#f0c6a4" style="" class=""/><rect xmlns="http://www.w3.org/2000/svg" fill="#f7cca9" height="240" rx="104" width="208" x="72" y="40" data-original="#f7cca9" style="" class=""/><path xmlns="http://www.w3.org/2000/svg" d="m328 312v176h-304v-176a32 32 0 0 1 32-32h240a32 32 0 0 1 32 32z" fill="#ffffff" data-original="#e9eef2" style="" class=""/><path xmlns="http://www.w3.org/2000/svg" d="m192 488h-32l-8-96 8-64h32l8 64z" fill="#1188a4" data-original="#2d85cc" style="" class=""/><path xmlns="http://www.w3.org/2000/svg" d="m72 176s24.358-16 48.716-48h170.508c29.147 0 52.776-23.281 52.776-52 0-28.719-23.629-52-52.776-52h-179.224c-44.852 4.409-80 45.923-80 96 0 20.9 5.606 40.238 16 56z" fill="#686868" data-original="#95573a" style="" class=""/><path xmlns="http://www.w3.org/2000/svg" d="m296 344h192v144h-192z" fill="#1188a4" data-original="#6a7073" style="" class=""/><path xmlns="http://www.w3.org/2000/svg" d="m488 376-96 48-96-48v-32h192z" fill="#1188a4" data-original="#596063" style="" class=""/><path xmlns="http://www.w3.org/2000/svg" d="m376 400h32v32h-32z" fill="#686868" data-original="#4f5659" style="" class=""/><path xmlns="http://www.w3.org/2000/svg" d="m160 280h32v48h-32z" fill="#1188a4" data-original="#1261a0" style="" class=""/><path xmlns="http://www.w3.org/2000/svg" d="m184 280-64 48v-48z" fill="#dadcde" data-original="#dadcde" style="" class=""/><path xmlns="http://www.w3.org/2000/svg" d="m168 280 64 48v-48z" fill="#dadcde" data-original="#dadcde" style="" class=""/><circle xmlns="http://www.w3.org/2000/svg" cx="216" cy="184" r="8" fill="#000000" data-original="#000000" style="" class=""/><circle xmlns="http://www.w3.org/2000/svg" cx="136" cy="184" r="8" fill="#000000" data-original="#000000" style="" class=""/><path xmlns="http://www.w3.org/2000/svg" d="m168 208h16a8 8 0 0 0 0-16h-8v-8a8 8 0 0 0 -16 0v16a8 8 0 0 0 8 8z" fill="#000000" data-original="#000000" style="" class=""/><path xmlns="http://www.w3.org/2000/svg" d="m219.077 208.615a8 8 0 0 0 -10.462 4.308c-.079.191-8.23 19.077-32.615 19.077-23.955 0-32.248-18.238-32.636-19.126a8 8 0 0 0 -14.749 6.2c.492 1.184 12.453 28.926 47.385 28.926s46.893-27.742 47.385-28.923a8 8 0 0 0 -4.308-10.462z" fill="#000000" data-original="#000000" style="" class=""/><path xmlns="http://www.w3.org/2000/svg" d="m488 336h-56v-24a24.028 24.028 0 0 0 -24-24h-32a24.028 24.028 0 0 0 -24 24v24h-16v-24a40.045 40.045 0 0 0 -40-40h-62.369a112.769 112.769 0 0 0 43.548-48h2.821a40.045 40.045 0 0 0 40-40v-55.167a59.949 59.949 0 0 0 32-52.833c0-33.084-27.265-60-60.776-60h-179.224c-.262 0-.522.013-.782.039-23.859 2.345-45.938 14.313-62.171 33.7a109.412 109.412 0 0 0 -25.047 70.261 112.072 112.072 0 0 0 10.9 49.072 39.987 39.987 0 0 0 37.1 54.928h2.821a112.769 112.769 0 0 0 43.548 48h-62.369a40.045 40.045 0 0 0 -40 40v176a8 8 0 0 0 8 8h464a8 8 0 0 0 8-8v-144a8 8 0 0 0 -8-8zm-8 35.056-64 32v-3.056a8 8 0 0 0 -8-8h-32a8 8 0 0 0 -8 8v3.056l-64-32v-19.056h176zm-80 36.944v16h-16v-16zm-32-96a8.009 8.009 0 0 1 8-8h32a8.009 8.009 0 0 1 8 8v24h-48zm-48 0v24h-24a8 8 0 0 0 -8 8v136h-87.3l7.278-87.335a7.979 7.979 0 0 0 -.035-1.657l-7.943-63.508v-13.5l27.2 20.4a8 8 0 0 0 12.8-6.4v-40h56a24.027 24.027 0 0 1 24 24zm-192-24h32l-32 24zm64 0h32v24zm-16 8 8 6v18h-16v-18zm-15.958 96.166 7.02-56.166h17.876l7.02 56.166-7.319 87.834h-17.278zm123.366-184.412a111.652 111.652 0 0 0 4.592-31.754v-14.624a24 24 0 0 1 -4.592 46.378zm20.592-55.732a39.841 39.841 0 0 0 -16-7.217v-8.805h3.224a61.531 61.531 0 0 0 12.776-1.345zm-242.686-92.012c13.44-16.05 31.572-25.987 51.086-28.01h178.824c24.689 0 44.776 19.738 44.776 44s-20.087 44-44.776 44h-170.507a8 8 0 0 0 -6.365 3.154c-19.346 25.415-38.862 40.495-44.874 44.846h-17.04c-8.15-13.861-12.438-30.36-12.438-48a93.384 93.384 0 0 1 21.314-59.99zm-13.314 123.99h16.289a111.333 111.333 0 0 0 4.3 23.754 24.034 24.034 0 0 1 -20.589-23.754zm32.092-3.927c7.616-5.615 25.82-20.23 44.551-44.073h147.357v40a96 96 0 0 1 -191.908 4.073zm-48.092 131.927a24.027 24.027 0 0 1 24-24h56v40a8 8 0 0 0 12.8 6.4l27.2-20.4v13.5l-7.938 63.508a7.979 7.979 0 0 0 -.035 1.657l7.278 87.335h-119.305zm272 168v-91.056l64 32v11.056a8 8 0 0 0 8 8h32a8 8 0 0 0 8-8v-11.056l64-32v91.056z" fill="#000000" data-original="#000000" style="" class=""/></g></svg>
