<?xml version="1.0"?>
<svg xmlns="http://www.w3.org/2000/svg" xmlns:xlink="http://www.w3.org/1999/xlink" xmlns:svgjs="http://svgjs.com/svgjs" version="1.1" width="512" height="512" x="0" y="0" viewBox="0 0 512 512" style="enable-background:new 0 0 512 512" xml:space="preserve" class=""><g><path xmlns="http://www.w3.org/2000/svg" d="m56 280h240a32 32 0 0 1 32 32v176a0 0 0 0 1 0 0h-304a0 0 0 0 1 0 0v-176a32 32 0 0 1 32-32z" fill="#e9eef2" data-original="#e9eef2" style="" class=""/><path xmlns="http://www.w3.org/2000/svg" d="m72 280h208v208h-208z" fill="#1188a4" data-original="#4f5659" style="" class=""/><path xmlns="http://www.w3.org/2000/svg" d="m240 280-64 112-64-112z" fill="#e9eef2" data-original="#e9eef2" style="" class=""/><circle xmlns="http://www.w3.org/2000/svg" cx="280" cy="184" fill="#f0c6a4" r="32" data-original="#f0c6a4" style="" class=""/><circle xmlns="http://www.w3.org/2000/svg" cx="72" cy="184" fill="#f0c6a4" r="32" data-original="#f0c6a4" style="" class=""/><rect xmlns="http://www.w3.org/2000/svg" fill="#f7cca9" height="224" rx="104" width="208" x="72" y="56" data-original="#f7cca9" style="" class=""/><path xmlns="http://www.w3.org/2000/svg" d="m136 208s10 32 40 32 40-32 40-32z" fill="#eb423f" data-original="#eb423f" style="" class=""/><path xmlns="http://www.w3.org/2000/svg" d="m152 280h48v32h-48z" fill="#1188a4" data-original="#4f5659" style="" class=""/><path xmlns="http://www.w3.org/2000/svg" d="m240 320-48-8.816v-31.347l48-7.837z" fill="#757c80" data-original="#757c80" style=""/><path xmlns="http://www.w3.org/2000/svg" d="m112 320 48-8.816v-31.347l-48-7.837z" fill="#757c80" data-original="#757c80" style=""/><path xmlns="http://www.w3.org/2000/svg" d="m481.714 472h-162.945l-6.769-32h176z" fill="#686868" data-original="#95573a" style="" class=""/><path xmlns="http://www.w3.org/2000/svg" d="m392 432h32a0 0 0 0 1 0 0v64a0 0 0 0 1 0 0h-32a16 16 0 0 1 -16-16v-32a16 16 0 0 1 16-16z" fill="#f7cca9" transform="matrix(0 -1 1 0 -64 864)" data-original="#f7cca9" style="" class=""/><ellipse xmlns="http://www.w3.org/2000/svg" cx="88" cy="424" fill="#ffb632" rx="32" ry="16" data-original="#ffb632" style="" class=""/><path xmlns="http://www.w3.org/2000/svg" d="m232 56h5.249a42.751 42.751 0 0 1 42.751 42.751v53.249a0 0 0 0 1 0 0 48 48 0 0 1 -48-48v-48a0 0 0 0 1 0 0z" fill="#686868" data-original="#75452e" style="" class=""/><path xmlns="http://www.w3.org/2000/svg" d="m152 24a32 32 0 0 0 -32 32h-5.249a42.751 42.751 0 0 0 -42.751 42.751v53.249a48 48 0 0 0 48-48h112a64 64 0 0 0 64-64v-16z" fill="#686868" data-original="#95573a" style="" class=""/><path xmlns="http://www.w3.org/2000/svg" d="m440 280h48a0 0 0 0 1 0 0v72a24 24 0 0 1 -24 24 24 24 0 0 1 -24-24v-72a0 0 0 0 1 0 0z" fill="#e9eef2" data-original="#e9eef2" style="" class=""/><path xmlns="http://www.w3.org/2000/svg" d="m488 312v40a24 24 0 0 1 -48 0v-40z" fill="#cff99c" data-original="#960e35" style="" class=""/><path xmlns="http://www.w3.org/2000/svg" d="m360 280h48a0 0 0 0 1 0 0v72a24 24 0 0 1 -24 24 24 24 0 0 1 -24-24v-72a0 0 0 0 1 0 0z" fill="#e9eef2" data-original="#e9eef2" style="" class=""/><path xmlns="http://www.w3.org/2000/svg" d="m408 312v40a24 24 0 0 1 -48 0v-40z" fill="#cff99c" data-original="#960e35" style="" class=""/><circle xmlns="http://www.w3.org/2000/svg" cx="216" cy="168" r="8" fill="#000000" data-original="#000000" style="" class=""/><circle xmlns="http://www.w3.org/2000/svg" cx="136" cy="168" r="8" fill="#000000" data-original="#000000" style="" class=""/><path xmlns="http://www.w3.org/2000/svg" d="m168 192h16a8 8 0 0 0 0-16h-8v-8a8 8 0 0 0 -16 0v16a8 8 0 0 0 8 8z" fill="#000000" data-original="#000000" style="" class=""/><path xmlns="http://www.w3.org/2000/svg" d="m216 200h-80a8 8 0 0 0 -7.636 10.386c.48 1.536 12.162 37.614 47.636 37.614s47.156-36.078 47.636-37.614a8 8 0 0 0 -7.636-10.386zm-40 32c-13.768 0-22.366-8.6-27.213-16h54.384c-4.866 7.385-13.479 16-27.171 16z" fill="#000000" data-original="#000000" style="" class=""/><path xmlns="http://www.w3.org/2000/svg" d="m488 272h-48a8 8 0 0 0 -8 8v72a32.056 32.056 0 0 0 24 30.987v49.013h-64v-49.013a32.056 32.056 0 0 0 24-30.987v-72a8 8 0 0 0 -8-8h-48a8 8 0 0 0 -8 8v72a32.056 32.056 0 0 0 24 30.987v49.013h-40v-120a40.045 40.045 0 0 0 -40-40h-48a7.932 7.932 0 0 0 -4.113-6.984 112.716 112.716 0 0 0 33.292-41.016h2.821a40 40 0 0 0 8-79.195v-46.054a50.937 50.937 0 0 0 -1.42-11.873 71.671 71.671 0 0 0 17.42-46.878v-16a8 8 0 0 0 -8-8h-144a40.069 40.069 0 0 0 -39.2 32.037 50.812 50.812 0 0 0 -48.8 50.714v46.054a40 40 0 0 0 8 79.195h2.821a112.716 112.716 0 0 0 33.292 41.016 7.932 7.932 0 0 0 -4.113 6.984h-48a40.045 40.045 0 0 0 -40 40v176a8 8 0 0 0 8 8h304a8 8 0 0 0 8-8v-8h25.376a24.039 24.039 0 0 0 22.624 16h32a24.039 24.039 0 0 0 22.624-16h43.09a8 8 0 0 0 7.849-6.458l6.287-32a8 8 0 0 0 -7.85-9.542h-16v-49.013a32.056 32.056 0 0 0 24-30.987v-72a8 8 0 0 0 -8-8zm-88 16v16h-32v-16zm-32 64v-32h32v32a16 16 0 0 1 -32 0zm-46.131 96h38.131v16h-34.746zm-129.869-160v16h-32v-16zm-48 17.989-24 4.411v-28.988l24 3.919zm12.283 14.011h39.434l11.051 2.03-30.768 53.845-30.768-53.845zm51.717-14.011v-20.658l24-3.919v28.988zm64-206.156v43.367a40.115 40.115 0 0 1 -31.3-31.741 71.546 71.546 0 0 0 31.3-11.626zm32 84.167a24.035 24.035 0 0 1 -20.592 23.754 111.652 111.652 0 0 0 4.592-31.754v-14.624a24.039 24.039 0 0 1 16 22.624zm-224-85.249a34.79 34.79 0 0 1 34.751-34.751h5.249a8 8 0 0 0 8-8 24.027 24.027 0 0 1 24-24h136v8a56.063 56.063 0 0 1 -56 56h-112a8 8 0 0 0 -8 8 40.071 40.071 0 0 1 -32 39.2zm-32 85.249a24.039 24.039 0 0 1 16-22.624v14.624a111.652 111.652 0 0 0 4.592 31.754 24.035 24.035 0 0 1 -20.592-23.754zm32-8v-16.574a56.128 56.128 0 0 0 47.431-47.426h97.15a56.112 56.112 0 0 0 47.419 47.419v16.581a96 96 0 0 1 -192 0zm26.88 150.146a7.992 7.992 0 0 0 6.565 1.722l15.108-2.775 40.5 70.876a8 8 0 0 0 13.892 0l40.5-70.876 15.108 2.775a8 8 0 0 0 9.447-7.868v-32h24v192h-192v-32.443a71.67 71.67 0 0 0 8 .443c22.8 0 40-10.318 40-24s-17.2-24-40-24a71.67 71.67 0 0 0 -8 .443v-112.443h24v32a8 8 0 0 0 2.88 6.146zm-18.88 89.854c15.488 0 24 6.009 24 8s-8.512 8-24 8-24-6.009-24-8 8.512-8 24-8zm-56-104a24.027 24.027 0 0 1 24-24h8v116.542c-9.836 4.288-16 11.269-16 19.458s6.164 15.17 16 19.458v36.542h-32zm256 168v-192h8a24.028 24.028 0 0 1 24 24v120h-8a8 8 0 0 0 -7.827 9.656l6.769 32a8 8 0 0 0 7.828 6.344zm136-8a8.009 8.009 0 0 1 -8 8h-32a8.009 8.009 0 0 1 -8-8v-24h48zm51.133-8h-35.133v-16h38.275zm4.867-176v16h-32v-16zm-16 80a16.019 16.019 0 0 1 -16-16v-32h32v32a16.019 16.019 0 0 1 -16 16z" fill="#000000" data-original="#000000" style="" class=""/></g></svg>
