<?xml version="1.0"?>
<svg xmlns="http://www.w3.org/2000/svg" xmlns:xlink="http://www.w3.org/1999/xlink" xmlns:svgjs="http://svgjs.com/svgjs" version="1.1" width="512" height="512" x="0" y="0" viewBox="0 0 512 512" style="enable-background:new 0 0 512 512" xml:space="preserve" class=""><g><path xmlns="http://www.w3.org/2000/svg" d="m304 264c-24-32-16-48-16-48h-8.058a133.988 133.988 0 0 0 16.058-64c0-70.692-53.726-128-120-128s-120 57.308-120 128a133.988 133.988 0 0 0 16.058 64h-8.058s8 16-16 48-24 48-24 48h304s0-16-24-48z" fill="#686868" data-original="#95573a" style="" class=""/><path xmlns="http://www.w3.org/2000/svg" d="m56 280h240a32 32 0 0 1 32 32v176a0 0 0 0 1 0 0h-304a0 0 0 0 1 0 0v-176a32 32 0 0 1 32-32z" fill="#e9eef2" data-original="#e9eef2" style="" class=""/><path xmlns="http://www.w3.org/2000/svg" d="m176 280h-104v208h104 104v-208z" fill="#1188a4" data-original="#596063" style="" class=""/><circle xmlns="http://www.w3.org/2000/svg" cx="280" cy="184" fill="#f0c6a4" r="32" data-original="#f0c6a4" style="" class=""/><circle xmlns="http://www.w3.org/2000/svg" cx="72" cy="184" fill="#f0c6a4" r="32" data-original="#f0c6a4" style="" class=""/><path xmlns="http://www.w3.org/2000/svg" d="m112 280 64 128 64-128z" fill="#e9eef2" data-original="#e9eef2" style="" class=""/><ellipse xmlns="http://www.w3.org/2000/svg" cx="88" cy="408" fill="#eb423f" rx="32" ry="16" data-original="#eb423f" style="" class=""/><path xmlns="http://www.w3.org/2000/svg" d="m248 424h240v32h-240z" fill="#686868" data-original="#95573a" style="" class=""/><path xmlns="http://www.w3.org/2000/svg" d="m367.889 328a95.945 95.945 0 0 0 -95.889 96h191.778a95.945 95.945 0 0 0 -95.889-96z" fill="#1188a4" data-original="#f7b030" style="" class=""/><path xmlns="http://www.w3.org/2000/svg" d="m400 416h32a0 0 0 0 1 0 0v64a0 0 0 0 1 0 0h-32a16 16 0 0 1 -16-16v-32a16 16 0 0 1 16-16z" fill="#f7cca9" transform="matrix(0 -1 1 0 -40 856)" data-original="#f7cca9" style="" class=""/><circle xmlns="http://www.w3.org/2000/svg" cx="368" cy="312" fill="#686868" r="16" data-original="#95573a" style="" class=""/><path xmlns="http://www.w3.org/2000/svg" d="m152 280h48v32h-48z" fill="#1188a4" data-original="#596063" style="" class=""/><path xmlns="http://www.w3.org/2000/svg" d="m240 320-48-8.816v-31.347l48-7.837z" fill="#757c80" data-original="#757c80" style=""/><path xmlns="http://www.w3.org/2000/svg" d="m112 320 48-8.816v-31.347l-48-7.837z" fill="#757c80" data-original="#757c80" style=""/><path xmlns="http://www.w3.org/2000/svg" d="m72 152s24-32 72-24 64-40 64-40 0 32 32 40 40 32 40 32v16a104 104 0 0 1 -104 104 104 104 0 0 1 -104-104z" fill="#f7cca9" data-original="#f7cca9" style="" class=""/><path xmlns="http://www.w3.org/2000/svg" d="m136 208s10 32 40 32 40-32 40-32z" fill="#eb423f" data-original="#eb423f" style="" class=""/><path xmlns="http://www.w3.org/2000/svg" d="m488 416h-16.527a104.184 104.184 0 0 0 -81.8-93.693 24 24 0 1 0 -43.36-.044 102.9 102.9 0 0 0 -10.313 2.756v-13.019a39.747 39.747 0 0 0 -6.437-21.719 176.994 176.994 0 0 0 -19.163-31.081c-15.774-21.032-16.092-33.639-15.5-38.09a39.973 39.973 0 0 0 9.07-69.11h.03c0-74.99-57.42-136-128-136s-128 61.01-128 136h.028a39.973 39.973 0 0 0 9.07 69.11c.594 4.451.276 17.058-15.5 38.09a176.994 176.994 0 0 0 -19.163 31.081 39.747 39.747 0 0 0 -6.435 21.719v176a8 8 0 0 0 8 8h304a8 8 0 0 0 8-8v-24h33.376a24.039 24.039 0 0 0 22.624 16h32a24.039 24.039 0 0 0 22.624-16h41.376a8 8 0 0 0 8-8v-32a8 8 0 0 0 -8-8zm-32.589 0h-175.044a87.876 87.876 0 0 1 175.044 0zm-367.411-16c15.488 0 24 6.009 24 8s-8.512 8-24 8-24-6.009-24-8 8.512-8 24-8zm0 32c22.8 0 40-10.317 40-24s-17.2-24-40-24a71.67 71.67 0 0 0 -8 .443v-96.443h24v32a8 8 0 0 0 9.445 7.868l12.6-2.315 41.955 83.047v71.4h-88v-48.443a71.67 71.67 0 0 0 8 .443zm-8-269.578c4.951-6.958 25.974-32.654 62.685-26.53a72.086 72.086 0 0 0 11.859 1.011c21.73 0 36.451-10.7 45.375-20.521a76.677 76.677 0 0 0 5.429-6.71c5.349 10.923 15.344 21.747 32.712 26.089 11.345 2.837 20.559 8.183 27.385 15.893a40.387 40.387 0 0 1 6.555 9.894v14.452a96 96 0 0 1 -192 0zm96.586 227.689-34.133-67.57 10.992-2.02-.095-.521h45.3l-.095.521 11.429 2.1zm15.414-102.111v16h-32v-16zm-48 17.989-24 4.411v-28.988l24 3.918zm64 0v-20.659l24-3.918v28.988zm-24 105.211 42.348-85.577 12.207 2.242a8 8 0 0 0 9.445-7.865v-32h24v95.99a103.3 103.3 0 0 0 -7.7 32.01h-16.3a8 8 0 0 0 -8 8v32a8 8 0 0 0 8 8h24v16h-88zm72 36.8v-16h112v16zm112-144a8 8 0 1 1 -8 8 8.009 8.009 0 0 1 8-8zm-80 53.592v-69.592h8a23.98 23.98 0 0 1 19.548 10.1c.16.356.339.722.492 1.076l.182-.079a23.851 23.851 0 0 1 3.778 12.903v19.73a104.6 104.6 0 0 0 -32 25.862zm9.6-88.792c.861 1.147 1.685 2.28 2.5 3.409a40.252 40.252 0 0 0 -4.1-.209h-48a7.932 7.932 0 0 0 -4.113-6.984 112.716 112.716 0 0 0 33.292-41.016h1.569c.083 9.444 3.61 24.477 18.852 44.8zm-14.192-61.046a111.652 111.652 0 0 0 4.592-31.754v-14.624a24 24 0 0 1 -4.592 46.378zm-107.408-175.754c59.49 0 108.288 49.955 111.791 112.767a40.087 40.087 0 0 0 -7.791-.767v.176c-6.618-8.576-18.33-19-38.06-23.937-25.357-6.339-25.928-31.226-25.94-32.239a8 8 0 0 0 -15.582-2.553c-.576 1.695-14.587 41.417-55.1 34.661-21.836-3.639-42.623 1.372-60.115 14.492a87.5 87.5 0 0 0 -10.598 9.4h-2.605a40.087 40.087 0 0 0 -7.791.767c3.503-62.812 52.301-112.767 111.791-112.767zm-128 152a24.039 24.039 0 0 1 16-22.624v14.624a111.652 111.652 0 0 0 4.592 31.754 24.035 24.035 0 0 1 -20.592-23.754zm25.252 40h1.569a112.716 112.716 0 0 0 33.292 41.016 7.932 7.932 0 0 0 -4.113 6.984h-48a40.252 40.252 0 0 0 -4.1.209c.815-1.129 1.639-2.262 2.5-3.409 15.242-20.323 18.769-35.356 18.852-44.8zm-41.252 88a23.851 23.851 0 0 1 3.778-12.9l.182.079c.153-.354.332-.72.492-1.076a23.98 23.98 0 0 1 19.548-10.103h8v100.542c-9.836 4.288-16 11.269-16 19.458s6.164 15.17 16 19.458v52.542h-32zm288 168h-32v-16h32zm104-16h-32a8.009 8.009 0 0 1 -8-8v-24h48v24a8.009 8.009 0 0 1 -8 8zm56-16h-32v-16h32z" fill="#000000" data-original="#000000" style="" class=""/><circle xmlns="http://www.w3.org/2000/svg" cx="216" cy="168" r="8" fill="#000000" data-original="#000000" style="" class=""/><circle xmlns="http://www.w3.org/2000/svg" cx="136" cy="168" r="8" fill="#000000" data-original="#000000" style="" class=""/><path xmlns="http://www.w3.org/2000/svg" d="m168 192h16a8 8 0 0 0 0-16h-8v-8a8 8 0 0 0 -16 0v16a8 8 0 0 0 8 8z" fill="#000000" data-original="#000000" style="" class=""/><path xmlns="http://www.w3.org/2000/svg" d="m129.555 203.262a8 8 0 0 0 -1.191 7.124c.48 1.536 12.162 37.614 47.636 37.614s47.156-36.078 47.636-37.614a8 8 0 0 0 -7.636-10.386h-80a8 8 0 0 0 -6.445 3.262zm73.616 12.738c-4.866 7.385-13.479 16-27.171 16-13.768 0-22.366-8.6-27.212-16z" fill="#000000" data-original="#000000" style="" class=""/></g></svg>
