<?xml version="1.0"?>
<svg xmlns="http://www.w3.org/2000/svg" xmlns:xlink="http://www.w3.org/1999/xlink" xmlns:svgjs="http://svgjs.com/svgjs" version="1.1" width="512" height="512" x="0" y="0" viewBox="0 0 512 512" style="enable-background:new 0 0 512 512" xml:space="preserve" class=""><g><path xmlns="http://www.w3.org/2000/svg" d="m56 296h256a32 32 0 0 1 32 32v160a0 0 0 0 1 0 0h-320a0 0 0 0 1 0 0v-160a32 32 0 0 1 32-32z" fill="#1188a4" data-original="#35a872" style="" class=""/><path xmlns="http://www.w3.org/2000/svg" d="m184 360h64v-64z" fill="#1188a4" data-original="#20754d" style="" class=""/><path xmlns="http://www.w3.org/2000/svg" d="m184 360h-64v-64z" fill="#1188a4" data-original="#20754d" style="" class=""/><path xmlns="http://www.w3.org/2000/svg" d="m48 200v-40a136 136 0 0 1 136-136 136 136 0 0 1 136 136v40z" fill="#4f5659" data-original="#95573a" style="" class=""/><circle xmlns="http://www.w3.org/2000/svg" cx="288" cy="200" fill="#f0c6a4" r="32" data-original="#f0c6a4" style=""/><circle xmlns="http://www.w3.org/2000/svg" cx="80" cy="200" fill="#f0c6a4" r="32" data-original="#f0c6a4" style=""/><path xmlns="http://www.w3.org/2000/svg" d="m80 160h72c35.346 0 64-32.235 64-72a72 72 0 0 1 72 72v32a104 104 0 0 1 -104 104 104 104 0 0 1 -104-104z" fill="#f7cca9" data-original="#f7cca9" style="" class=""/><path xmlns="http://www.w3.org/2000/svg" d="m280 280h176v208h-176z" fill="#e9eef2" data-original="#e9eef2" style="" class=""/><path xmlns="http://www.w3.org/2000/svg" d="m405.088 338.912h32v112h-32z" fill="#9f9f9f" transform="matrix(.707 .707 -.707 .707 402.579 -182.087)" data-original="#eb423f" style="" class=""/><path xmlns="http://www.w3.org/2000/svg" d="m472 328a16 16 0 0 1 16 16v16a0 0 0 0 1 0 0h-32a0 0 0 0 1 0 0v-16a16 16 0 0 1 16-16z" fill="#dadcde" transform="matrix(.707 .707 -.707 .707 381.49 -232.999)" data-original="#dadcde" style=""/><path xmlns="http://www.w3.org/2000/svg" d="m358.863 457.137 11.314-33.941 22.627 22.627z" fill="#f7cca9" data-original="#f7cca9" style="" class=""/><path xmlns="http://www.w3.org/2000/svg" d="m248 296-64 64-64-64z" fill="#f7cca9" data-original="#f7cca9" style="" class=""/><path xmlns="http://www.w3.org/2000/svg" d="m203.562 241.344c-13.346 8.9-25.778 8.9-39.124 0a8 8 0 1 0 -8.876 13.312c9.3 6.2 18.87 9.3 28.438 9.3s19.136-3.1 28.438-9.3a8 8 0 0 0 -8.876-13.312z" fill="#000000" data-original="#000000" style="" class=""/><circle xmlns="http://www.w3.org/2000/svg" cx="224" cy="192" r="8" fill="#000000" data-original="#000000" style="" class=""/><circle xmlns="http://www.w3.org/2000/svg" cx="144" cy="192" r="8" fill="#000000" data-original="#000000" style="" class=""/><path xmlns="http://www.w3.org/2000/svg" d="m312 320h32a8 8 0 0 0 0-16h-32a8 8 0 0 0 0 16z" fill="#000000" data-original="#000000" style="" class=""/><path xmlns="http://www.w3.org/2000/svg" d="m376 368h-32a8 8 0 0 0 0 16h32a8 8 0 0 0 0-16z" fill="#000000" data-original="#000000" style="" class=""/><path xmlns="http://www.w3.org/2000/svg" d="m472 320a24.025 24.025 0 0 0 -8 1.362v-41.362a8 8 0 0 0 -8-8h-176a8 8 0 0 0 -8 8v8h-30.369a112.769 112.769 0 0 0 43.548-48h2.821a40.045 40.045 0 0 0 40-40v-40c0-79.4-64.6-144-144-144s-144 64.6-144 144v40a40.045 40.045 0 0 0 40 40h2.821a112.769 112.769 0 0 0 43.548 48h-70.369a40.045 40.045 0 0 0 -40 40v160a8 8 0 0 0 8 8h432a8 8 0 0 0 8-8v-102.059l13.652-13.652 11.313-11.313a24 24 0 0 0 -16.965-40.976zm-180.592-96.246a111.652 111.652 0 0 0 4.592-31.754v-14.624a24 24 0 0 1 -4.592 46.378zm-107.408-191.754a128.144 128.144 0 0 1 128 128v8.022a39.841 39.841 0 0 0 -16-7.217v-.805a80.091 80.091 0 0 0 -80-80 8 8 0 0 0 -8 8c0 35.29-25.122 64-56 64h-72a8 8 0 0 0 -8 8v.805a39.841 39.841 0 0 0 -16 7.217v-8.022a128.144 128.144 0 0 1 128-128zm-79.195 152h-16.805v-16h24.022a39.841 39.841 0 0 0 -7.217 16zm39.195-16a24 24 0 1 1 -24 24 24.028 24.028 0 0 1 24-24zm-88 32a24.039 24.039 0 0 1 16-22.624v14.624a111.652 111.652 0 0 0 4.592 31.754 24.035 24.035 0 0 1 -20.592-23.754zm32.336 0h16.469a40 40 0 1 0 68.214-35.486c27.136-9.222 47.508-35.806 50.574-68.048a64.082 64.082 0 0 1 56.407 63.534v24h-16.8a40 40 0 1 0 0 16h16.469a96 96 0 0 1 -191.328 0zm159.664-8a24 24 0 1 1 -24-24 24.028 24.028 0 0 1 24 24zm-19.313 112-44.687 44.687-44.687-44.687zm11.313 11.314v36.686h-36.686zm-112 0 36.686 36.686h-36.686zm-96 164.686v-152a24.028 24.028 0 0 1 24-24h56v56a8 8 0 0 0 8 8h56v112zm160-112h56a8 8 0 0 0 8-8v-56h16v176h-80zm181.673 70.005 4.327 4.322-6.483 2.161zm7.817-14.805 67.883-67.883 11.314 11.314-67.887 67.879zm66.51 56.8h-160v-192h160v46.059l-4.284 4.284-79.2 79.2a7.952 7.952 0 0 0 -1.926 3.129h-.007l-11.314 33.941a8 8 0 0 0 10.12 10.12l33.941-11.314v-.007a7.952 7.952 0 0 0 3.129-1.926l49.541-49.545zm29.657-130.343-5.657 5.656-11.314-11.313 5.657-5.657a8 8 0 0 1 11.314 11.314z" fill="#000000" data-original="#000000" style="" class=""/><path xmlns="http://www.w3.org/2000/svg" d="m376 320h48a8 8 0 0 0 0-16h-48a8 8 0 0 0 0 16z" fill="#000000" data-original="#000000" style="" class=""/><path xmlns="http://www.w3.org/2000/svg" d="m312 352h64a8 8 0 0 0 0-16h-64a8 8 0 0 0 0 16z" fill="#000000" data-original="#000000" style="" class=""/><circle xmlns="http://www.w3.org/2000/svg" cx="312" cy="376" r="8" fill="#000000" data-original="#000000" style="" class=""/><path xmlns="http://www.w3.org/2000/svg" d="m328 432h-16a8 8 0 0 0 0 16h16a8 8 0 0 0 0-16z" fill="#000000" data-original="#000000" style="" class=""/><path xmlns="http://www.w3.org/2000/svg" d="m344 400h-32a8 8 0 0 0 0 16h32a8 8 0 0 0 0-16z" fill="#000000" data-original="#000000" style="" class=""/><circle xmlns="http://www.w3.org/2000/svg" cx="408" cy="344" r="8" fill="#000000" data-original="#000000" style="" class=""/></g></svg>
